<svg width="40" height="40" viewBox="0 0 40 40" fill="none" xmlns="http://www.w3.org/2000/svg">
<rect width="40" height="40" rx="4" fill="#00CA51"/>
<path d="M27.6993 15.2737L31.1744 7.6737C31.1744 7.6737 26.2827 7.19036 25.416 10.6404C24.7743 13.182 27.6993 15.2737 27.6993 15.2737Z" fill="#071824"/>
<path d="M7.51602 22.2404C6.56602 25.6737 4.16602 35.5987 4.16602 35.5987C8.61602 35.7737 10.716 33.582 10.716 33.582C10.716 33.582 18.3827 16.9737 25.3327 9.99036C15.1243 7.6987 9.86602 13.7404 7.52435 22.2404H7.51602Z" fill="#071824"/>
<path d="M25.791 26.432C25.791 26.432 29.4493 29.6737 32.1827 29.6737C33.1827 29.6737 35.841 27.882 35.841 27.882V24.507C35.841 24.507 29.6327 16.3737 28.6327 14.507C27.216 11.857 22.716 12.0404 22.716 12.0404C10.9743 11.782 11.4327 28.6987 10.7243 33.582H22.3743L22.5077 27.9904C22.5077 27.9904 24.666 27.7737 25.7993 26.432H25.791Z" fill="white"/>
<path d="M25.741 15.2737L27.441 5.83203C27.441 5.83203 21.8743 6.69036 21.8994 10.7737C21.9077 13.7737 25.7577 15.2654 25.7577 15.2654H25.7493L25.741 15.2737Z" fill="white"/>
<path d="M31.191 29.5654C31.5244 29.6237 31.8577 29.6737 32.1744 29.6737C33.1744 29.6737 35.8327 27.882 35.8327 27.882V24.507L33.116 24.807C33.116 24.807 33.4244 28.7487 31.191 29.5654Z" fill="#071824"/>
<path d="M22.366 33.582L22.4993 27.9904C19.5493 27.5487 17.666 25.4404 17.666 25.4404L22.366 33.582Z" fill="#071824"/>
</svg>
