<svg width="40" height="40" viewBox="0 0 40 40" fill="none" xmlns="http://www.w3.org/2000/svg">
<rect width="40" height="40" rx="4" fill="#00CA51"/>
<path d="M30.1564 11.6862H10.6762C9.88559 11.6862 9.20248 12.2388 9.03362 13.014L5.90971 27.7355C5.21125 31.0437 9.28691 33.1851 11.6126 30.7366L17.1542 24.911H23.6707L29.2123 30.7366C31.538 33.1851 35.6213 31.036 34.9152 27.7355L31.7913 13.014C31.6301 12.2388 30.947 11.6862 30.1487 11.6862H30.1564Z" fill="#071824"/>
<path d="M29.4808 8.33203H11.3514C10.1617 8.33203 9.14085 9.16098 8.89523 10.32L5.90949 24.3814C5.21102 27.6895 9.28668 29.8309 11.6123 27.3825L17.154 21.5568H23.6705L29.2121 27.3825C31.5378 29.8309 35.6211 27.6818 34.915 24.3814L31.9292 10.32C31.6836 9.16098 30.6551 8.33203 29.4731 8.33203H29.4808Z" fill="white"/>
<path d="M28.368 17.2662V13.0831C28.368 12.3879 27.8062 11.8244 27.1131 11.8244C26.42 11.8244 25.8582 12.3879 25.8582 13.0831V17.2662C25.8582 17.9614 26.42 18.525 27.1131 18.525C27.8062 18.525 28.368 17.9614 28.368 17.2662Z" fill="#071824"/>
<path d="M29.2123 13.9198H25.0292C24.334 13.9198 23.7705 14.4816 23.7705 15.1747C23.7705 15.8678 24.334 16.4296 25.0292 16.4296H29.2123C29.9075 16.4296 30.4711 15.8678 30.4711 15.1747C30.4711 14.4816 29.9075 13.9198 29.2123 13.9198Z" fill="#071824"/>
<path d="M14.345 18.3869C16.1564 18.3869 17.6224 16.9208 17.6224 15.1094C17.6224 13.298 16.1564 11.832 14.345 11.832C12.5336 11.832 11.0676 13.298 11.0676 15.1094C11.0676 16.9208 12.5336 18.3869 14.345 18.3869Z" fill="#071824"/>
</svg>
