<svg width="1804" height="396" viewBox="0 0 1804 396" fill="none" xmlns="http://www.w3.org/2000/svg">
<g clip-path="url(#clip0_0_3)" filter="url(#filter0_d_0_3)">
<mask id="mask0_0_3" style="mask-type:luminance" maskUnits="userSpaceOnUse" x="4" y="0" width="1796" height="388">
<path d="M1800 0H4V388H1800V0Z" fill="white"/>
</mask>
<g mask="url(#mask0_0_3)">
<path d="M1800 -6.10352e-05H4V388H1800V-6.10352e-05Z" fill="white"/>
<path d="M1800 -5.00006H4V392.084H1800V-5.00006Z" fill="url(#paint0_linear_0_3)"/>
<path d="M95.1772 487.153C147.892 484.898 203.626 474.11 262.382 454.791C290.832 445.436 311.867 437.494 325.482 430.961C339.097 424.428 347.664 418.185 351.189 412.228C354.713 406.272 355.254 399.581 352.814 392.159C349.357 381.645 343.204 376.474 334.35 376.644C326.115 376.611 309.841 378.19 285.534 381.385L207.671 391.569C157.616 397.747 118.82 394.396 91.2841 381.519C64.1634 367.821 43.9937 340.871 30.7751 300.669C12.8792 246.243 16.7579 203.847 42.4112 173.481C68.6813 142.912 117.38 115.934 188.505 92.5472C231.18 78.5152 269.413 68.685 303.201 63.058C337.404 56.6091 366.447 53.2275 390.331 52.913L425.386 165.779L423.516 169.476C368.132 169.868 310.754 179.825 251.381 199.347C222.312 208.905 202.615 217.783 192.287 225.976C182.375 233.348 179.35 242.907 183.214 254.658C185.247 260.843 188.418 265.283 192.731 267.977C197.662 270.468 206.922 271.535 220.512 271.178C233.899 270.204 254.705 267.819 282.927 264.022L354.919 254.743C395.29 250.378 427.493 254.522 451.529 267.179C475.566 279.836 494.196 306.266 507.415 346.467C519.007 381.72 521.763 411.995 515.689 437.294C509.412 461.974 492.238 483.729 464.161 502.556C436.703 521.18 396.07 539.337 342.262 557.03C301.443 570.452 263.105 581.002 227.25 588.679C191.81 595.535 159.568 600.654 130.525 604.035L93.0041 489.924L95.1772 487.153Z" fill="url(#paint1_linear_0_3)"/>
<path d="M1022.81 307.557C1007.52 319.436 985.232 332.933 955.935 348.049C927.053 362.343 891.583 376.407 849.526 390.236C796.337 407.725 748.644 415.868 706.443 414.667C664.657 412.644 628.684 398.084 598.529 370.99C568.172 343.278 543.132 299.425 523.405 239.433C496.562 157.794 495.695 92.6302 520.806 43.9382C546.534 -4.95712 598.672 -42.3203 677.218 -68.1473C733.5 -86.6533 780.363 -93.1529 817.811 -87.6473C855.878 -82.3451 886.597 -67.0881 909.965 -41.8751C933.748 -17.484 952.247 14.8128 965.466 55.0139C969.33 66.7649 972.881 79.6491 976.118 93.6624C979.973 107.472 982.801 121.275 984.597 135.077L982.107 140.008L676.886 240.368C690.163 266.158 708.741 279.924 732.617 281.668C757.11 283.209 793.476 276.049 841.717 260.187C873.878 249.612 900.269 240.249 920.891 232.098C941.928 223.125 963.072 213.431 984.32 203.017L988.947 204.582L1022.81 307.557ZM831.33 81.6451C826.449 66.8017 819.806 54.9343 811.401 46.0471C803.411 36.338 791.696 30.9399 776.259 29.8476C760.619 28.1368 739.504 31.653 712.909 40.3976C673.945 53.2095 650.513 68.4529 642.618 86.1267C635.137 102.979 634.958 122.227 642.075 143.874L831.33 81.6451Z" fill="url(#paint2_linear_0_3)"/>
<path d="M1278.23 240.02L1129.79 288.827L924.498 -335.525L1072.93 -384.332L1278.23 240.02Z" fill="url(#paint3_linear_0_3)"/>
<path d="M1782.92 57.624C1767.63 69.503 1745.34 83.0004 1716.05 98.1163C1687.16 112.41 1651.7 126.473 1609.64 140.302C1556.45 157.791 1508.75 165.936 1466.55 164.734C1424.77 162.711 1388.8 148.15 1358.64 121.056C1328.29 93.3442 1303.24 49.4927 1283.52 -10.4998C1256.67 -92.1389 1255.81 -157.303 1280.92 -205.995C1306.64 -254.89 1358.78 -292.253 1437.33 -318.08C1493.61 -336.586 1540.48 -343.087 1577.93 -337.581C1615.99 -332.279 1646.71 -317.021 1670.08 -291.808C1693.86 -267.417 1712.36 -235.121 1725.58 -194.92C1729.44 -183.169 1732.99 -170.285 1736.23 -156.272C1740.09 -142.462 1742.91 -128.658 1744.71 -114.856L1742.22 -109.925L1437 -9.5661C1450.28 16.2234 1468.85 29.991 1492.73 31.7354C1517.22 33.2764 1553.59 26.115 1601.83 10.2527C1633.99 -0.322113 1660.38 -9.68514 1681.01 -17.8364C1702.04 -26.8096 1723.18 -36.5022 1744.43 -46.9156L1749.06 -45.3507L1782.92 57.624ZM1591.44 -168.288C1586.56 -183.131 1579.92 -194.999 1571.51 -203.886C1563.52 -213.595 1551.81 -218.994 1536.37 -220.086C1520.73 -221.797 1499.61 -218.28 1473.02 -209.535C1434.06 -196.723 1410.63 -181.481 1402.73 -163.807C1395.25 -146.955 1395.07 -127.705 1402.19 -106.059L1591.44 -168.288Z" fill="url(#paint4_linear_0_3)"/>
<path d="M2198.5 -207.524L2238.15 -86.921C2224.73 -75.6522 2203.37 -63.4911 2174.08 -50.434C2144.79 -37.3768 2113.14 -25.2537 2079.12 -14.0688C2030.26 1.99686 1987.2 8.61554 1949.95 5.78723C1913.32 2.75556 1881.47 -12.8154 1854.41 -40.9258C1827.96 -69.2396 1804.67 -112.982 1784.53 -172.152C1764.4 -233.382 1757.09 -283.751 1762.6 -323.258C1768.74 -362.968 1785.95 -395.017 1814.26 -419.402C1842.56 -443.787 1879.6 -463.504 1925.37 -478.553C1952.58 -487.501 1981.95 -495.101 2013.47 -501.355C2045 -507.609 2071.37 -510.796 2092.57 -510.915L2134.38 -386.907L2132.2 -384.135C2112.43 -381.745 2091.72 -378.019 2070.08 -372.96C2048.45 -367.901 2027.42 -362.019 2007.01 -355.308C1965.58 -341.683 1939.36 -324.493 1928.36 -303.743C1917.36 -282.994 1917.86 -254.374 1929.86 -217.884C1939.01 -190.052 1949.23 -170.454 1960.51 -159.085C1971.78 -147.715 1986.17 -142.507 2003.68 -143.465C2021.18 -144.423 2043.85 -149.481 2071.68 -158.632C2093.33 -165.75 2113.74 -173.487 2132.92 -181.85C2152.1 -190.213 2172.42 -199.294 2193.87 -209.089L2198.5 -207.524Z" fill="url(#paint5_linear_0_3)"/>
<path d="M2289.51 -242.593L2225.45 -437.414L2169.79 -419.111L2130.13 -539.715L2199.72 -562.593L2191.25 -682.141L2297.93 -717.221L2334.23 -606.824L2435.36 -640.075L2475.01 -519.471L2373.89 -486.221L2427.27 -323.868C2432.97 -306.551 2439.1 -295.205 2445.66 -289.825C2452.03 -285.064 2462.94 -285.225 2478.4 -290.309C2488.3 -293.563 2498.71 -297.328 2509.64 -301.607C2520.37 -306.504 2531.09 -311.402 2541.82 -316.299L2545.21 -315.358L2584.86 -194.755C2558.02 -176.335 2520.18 -159.093 2471.32 -143.027C2422.46 -126.961 2384.16 -126.706 2356.43 -142.26C2328.7 -157.814 2306.39 -191.259 2289.51 -242.593Z" fill="url(#paint6_linear_0_3)"/>
<path d="M2564.27 -429.57C2537.02 -512.446 2535.02 -577.923 2558.28 -626.005C2581.53 -674.087 2635.21 -711.958 2719.33 -739.615C2775.61 -758.121 2823.4 -764.927 2862.7 -760.031C2902.01 -755.136 2934.78 -737.812 2961.01 -708.058C2987.66 -679.125 3010.03 -637.136 3028.13 -582.092C3046.02 -527.665 3052.83 -480.901 3048.56 -441.801C3044.9 -402.904 3028.7 -369.824 2999.97 -342.558C2971.04 -315.911 2928.44 -293.333 2872.15 -274.827C2788.04 -247.17 2722.46 -245.482 2675.41 -269.762C2628.16 -294.66 2591.11 -347.93 2564.27 -429.57ZM2830.36 -401.926C2866.23 -413.721 2887.81 -429.381 2895.1 -448.911C2902.8 -469.262 2900.14 -499.229 2887.13 -538.812C2874.72 -576.539 2859.38 -601.309 2841.11 -613.119C2823.25 -625.75 2796.38 -626.167 2760.51 -614.372C2725.87 -602.983 2704.5 -586.705 2696.38 -565.532C2688.68 -545.181 2691.04 -516.14 2703.44 -478.413C2716.46 -438.83 2732.1 -413.134 2750.38 -401.324C2769.07 -390.336 2795.73 -390.538 2830.36 -401.926Z" fill="url(#paint7_linear_0_3)"/>
<path d="M3328.45 -434.115L3180.01 -385.308L3031.46 -837.105L3152.06 -876.761L3194.63 -787.955L3197.41 -788.87C3191.59 -825.335 3196.75 -854.447 3212.9 -876.205C3228.84 -898.581 3257.53 -916.583 3298.97 -930.208C3315.67 -935.699 3331.13 -939.752 3345.34 -942.371C3359.36 -945.608 3371.2 -948.133 3380.89 -949.946L3428.47 -805.222L3427.23 -802.757C3416.52 -801.977 3404.37 -800.382 3390.77 -797.967C3377.79 -795.755 3363.26 -792.003 3347.18 -786.716C3324.3 -779.191 3304.8 -768.667 3288.68 -755.145C3273.19 -741.825 3263.74 -722.616 3260.34 -697.512C3257.36 -673.23 3262.79 -640.06 3276.61 -598.004L3328.45 -434.115Z" fill="url(#paint8_linear_0_3)"/>
</g>
</g>
<defs>
<filter id="filter0_d_0_3" x="0" y="0" width="1804" height="396" filterUnits="userSpaceOnUse" color-interpolation-filters="sRGB">
<feFlood flood-opacity="0" result="BackgroundImageFix"/>
<feColorMatrix in="SourceAlpha" type="matrix" values="0 0 0 0 0 0 0 0 0 0 0 0 0 0 0 0 0 0 127 0" result="hardAlpha"/>
<feOffset dy="4"/>
<feGaussianBlur stdDeviation="2"/>
<feComposite in2="hardAlpha" operator="out"/>
<feColorMatrix type="matrix" values="0 0 0 0 0 0 0 0 0 0 0 0 0 0 0 0 0 0 0.25 0"/>
<feBlend mode="normal" in2="BackgroundImageFix" result="effect1_dropShadow_0_3"/>
<feBlend mode="normal" in="SourceGraphic" in2="effect1_dropShadow_0_3" result="shape"/>
</filter>
<linearGradient id="paint0_linear_0_3" x1="1174.14" y1="6.22485" x2="1087.47" y2="423.265" gradientUnits="userSpaceOnUse">
<stop stop-color="#0369FF"/>
<stop offset="1" stop-color="#133567"/>
</linearGradient>
<linearGradient id="paint1_linear_0_3" x1="1724.11" y1="-949.946" x2="1724.11" y2="604.035" gradientUnits="userSpaceOnUse">
<stop stop-color="#104DA8"/>
<stop offset="1" stop-color="#132F59"/>
</linearGradient>
<linearGradient id="paint2_linear_0_3" x1="1724.11" y1="-949.946" x2="1724.11" y2="604.035" gradientUnits="userSpaceOnUse">
<stop stop-color="#104DA8"/>
<stop offset="1" stop-color="#132F59"/>
</linearGradient>
<linearGradient id="paint3_linear_0_3" x1="1724.11" y1="-949.946" x2="1724.11" y2="604.035" gradientUnits="userSpaceOnUse">
<stop stop-color="#104DA8"/>
<stop offset="1" stop-color="#132F59"/>
</linearGradient>
<linearGradient id="paint4_linear_0_3" x1="1724.11" y1="-949.946" x2="1724.11" y2="604.035" gradientUnits="userSpaceOnUse">
<stop stop-color="#104DA8"/>
<stop offset="1" stop-color="#132F59"/>
</linearGradient>
<linearGradient id="paint5_linear_0_3" x1="1724.11" y1="-949.946" x2="1724.11" y2="604.035" gradientUnits="userSpaceOnUse">
<stop stop-color="#104DA8"/>
<stop offset="1" stop-color="#132F59"/>
</linearGradient>
<linearGradient id="paint6_linear_0_3" x1="1724.11" y1="-949.946" x2="1724.11" y2="604.035" gradientUnits="userSpaceOnUse">
<stop stop-color="#104DA8"/>
<stop offset="1" stop-color="#132F59"/>
</linearGradient>
<linearGradient id="paint7_linear_0_3" x1="1724.11" y1="-949.946" x2="1724.11" y2="604.035" gradientUnits="userSpaceOnUse">
<stop stop-color="#104DA8"/>
<stop offset="1" stop-color="#132F59"/>
</linearGradient>
<linearGradient id="paint8_linear_0_3" x1="1724.11" y1="-949.946" x2="1724.11" y2="604.035" gradientUnits="userSpaceOnUse">
<stop stop-color="#104DA8"/>
<stop offset="1" stop-color="#132F59"/>
</linearGradient>
<clipPath id="clip0_0_3">
<rect width="1796" height="388" fill="white" transform="translate(4)"/>
</clipPath>
</defs>
</svg>
