<svg width="40" height="40" viewBox="0 0 40 40" fill="none" xmlns="http://www.w3.org/2000/svg">
<rect width="40" height="40" rx="4" fill="#0079FF"/>
<path d="M27.437 11.2148C25.4762 13.6858 22.505 10.8346 19.0736 10.8346C15.6423 10.8346 15.2421 12.6254 15.2421 12.6254V11.2148H10V21.0387H15.2421V19.8783C15.2421 15.9467 21.8347 20.1384 24.916 17.5073C18.2133 23.0995 13.7815 27.0211 13.7815 35.8346H23.1453C23.1453 23.1396 31.6086 18.3076 31.6086 11.2048H27.427L27.437 11.2148Z" fill="black"/>
<path d="M27.437 7.04812C25.4762 9.51911 22.505 6.66797 19.0736 6.66797C15.6423 6.66797 15.2421 8.45868 15.2421 8.45868V7.04812H10V16.8721H15.2421V15.7116C15.2421 11.78 21.8347 15.9717 24.916 13.3406C18.2133 18.9329 13.7815 22.8544 13.7815 31.668H23.1453C23.1453 18.9729 31.6086 14.141 31.6086 7.03812H27.427L27.437 7.04812Z" fill="white"/>
</svg>
