<svg width="40" height="40" viewBox="0 0 40 40" fill="none" xmlns="http://www.w3.org/2000/svg">
<rect width="40" height="40" rx="4" fill="#0079FF"/>
<path d="M20.0923 7.75964L24.1673 11.0346L29.3923 11.143L30.409 16.2763L34.3423 19.718L31.8173 24.3013L32.6257 29.468L27.7507 31.3596L25.0423 35.8346L20.0923 34.143L15.1423 35.8346L12.434 31.3596L7.55065 29.468L8.35898 24.3013L5.83398 19.718L9.77565 16.2763L10.784 11.143L16.0173 11.0346L20.0923 7.75964Z" fill="#231F20"/>
<path d="M20.0923 4.16797L24.1673 7.4513L29.3923 7.5513L30.409 12.6846L34.3423 16.1263L31.8173 20.7096L32.6257 25.8846L27.7507 27.768L25.0423 32.243L20.0923 30.5596L15.1423 32.243L12.434 27.768L7.55065 25.8846L8.35898 20.7096L5.83398 16.1263L9.77565 12.6846L10.784 7.5513L16.0173 7.4513L20.0923 4.16797Z" fill="white"/>
<path d="M22.059 18.5846C22.1257 17.868 22.234 16.4346 22.234 14.7763C22.234 10.9346 19.134 10.4513 19.134 10.4513C19.134 10.4513 19.4257 15.9346 17.5007 15.9346C17.5007 15.9346 17.4257 13.7513 16.4673 13.7513C16.284 15.2263 14.334 17.1763 14.334 20.0513C14.334 23.2263 16.909 25.818 20.1007 25.818C23.2923 25.818 25.8673 23.243 25.8673 20.0513C25.8673 18.4013 25.4173 16.5096 24.309 15.4596C24.0173 18.768 22.0757 18.5846 22.0757 18.5846H22.059Z" fill="#231F20"/>
</svg>
