<svg width="40" height="40" viewBox="0 0 40 40" fill="none" xmlns="http://www.w3.org/2000/svg">
<rect width="40" height="40" rx="4" fill="#0079FF"/>
<path d="M29.316 12.3487H10.6827L4.16602 14.9987L8.39935 34.5737H10.6827V31.8654H29.316V34.5737H31.5077L35.8327 14.9987L29.316 12.3487Z" fill="black"/>
<path d="M29.316 12.2154L21.7243 9.2987C20.616 8.8737 19.3827 8.8737 18.2827 9.2987L10.691 12.2154V31.8654H29.316V12.2154Z" fill="white"/>
<path d="M19.9993 21.0737C21.1493 21.0737 22.0827 20.1404 22.0827 18.9904C22.0827 17.8404 21.1493 16.907 19.9993 16.907C18.8493 16.907 17.916 17.8404 17.916 18.9904C17.916 20.1404 18.8493 21.0737 19.9993 21.0737Z" fill="black"/>
<path d="M19.991 27.907C21.141 27.907 22.0743 26.9737 22.0743 25.8237C22.0743 24.6737 21.141 23.7404 19.991 23.7404C18.841 23.7404 17.9077 24.6737 17.9077 25.8237C17.9077 26.9737 18.841 27.907 19.991 27.907Z" fill="black"/>
<path d="M26.7327 14.607C27.5743 11.682 27.5743 8.76536 26.7327 5.83203C24.3493 6.19036 22.3077 7.23203 20.6243 8.91536H19.3743C17.6743 7.23203 15.641 6.19036 13.266 5.83203C12.4243 8.75703 12.4243 11.6737 13.266 14.607C15.7577 14.1987 17.7327 13.0904 19.3743 11.4987H20.6493C22.2743 13.0904 24.266 14.207 26.7577 14.607H26.7327Z" fill="black"/>
</svg>
