<svg width="40" height="40" viewBox="0 0 40 40" fill="none" xmlns="http://www.w3.org/2000/svg">
<rect width="40" height="40" rx="4" fill="#0079FF"/>
<path d="M18.6256 33.1486L32.3146 19.4596C32.6812 19.093 32.6812 18.4985 32.3146 18.1319L18.6256 4.44295C18.259 4.07631 17.6646 4.07631 17.2979 4.44295L3.60897 18.1319C3.24232 18.4985 3.24232 19.093 3.60897 19.4596L17.2979 33.1486C17.6646 33.5152 18.259 33.5152 18.6256 33.1486Z" fill="black"/>
<path d="M13.036 33.639H32.3951C32.9136 33.639 33.334 33.2186 33.334 32.7001V13.341C33.334 12.8225 32.9136 12.4022 32.3951 12.4022H13.036C12.5175 12.4022 12.0972 12.8225 12.0972 13.341V32.7001C12.0972 33.2186 12.5175 33.639 13.036 33.639Z" fill="white"/>
<path d="M19.8333 28.3533C19.8333 27.0576 18.7818 26.0061 17.4862 26.0061C16.1906 26.0061 15.1391 27.0576 15.1391 28.3533C15.1391 29.6489 16.1906 30.7004 17.4862 30.7004C18.7818 30.7004 19.8333 29.6489 19.8333 28.3533Z" fill="black"/>
<path d="M25.0721 23.1051C25.0721 21.8095 24.0206 20.758 22.725 20.758C21.4294 20.758 20.3779 21.8095 20.3779 23.1051C20.3779 24.4007 21.4294 25.4522 22.725 25.4522C24.0206 25.4522 25.0721 24.4007 25.0721 23.1051Z" fill="black"/>
<path d="M30.3203 17.8569C30.3203 16.5613 29.2688 15.5098 27.9732 15.5098C26.6775 15.5098 25.626 16.5613 25.626 17.8569C25.626 19.1525 26.6775 20.204 27.9732 20.204C29.2688 20.204 30.3203 19.1525 30.3203 17.8569Z" fill="black"/>
</svg>
