<svg width="1804" height="396" viewBox="0 0 1804 396" fill="none" xmlns="http://www.w3.org/2000/svg">
<g clip-path="url(#clip0_0_3)" filter="url(#filter0_d_0_3)">
<mask id="mask0_0_3" style="mask-type:luminance" maskUnits="userSpaceOnUse" x="4" y="0" width="1796" height="388">
<path d="M1800 0H4V388H1800V0Z" fill="white"/>
</mask>
<g mask="url(#mask0_0_3)">
<path d="M1800 0H4V388H1800V0Z" fill="white"/>
<path d="M1800 -5H4V392.084H1800V-5Z" fill="url(#paint0_linear_0_3)"/>
<path d="M27.9507 -18.5288C71.7937 10.8273 123.116 35.0888 181.921 54.257C210.395 63.5383 232.055 69.5736 246.897 72.3573C261.739 75.1409 272.341 75.1728 278.705 72.4539C285.069 69.735 289.463 64.6597 291.884 57.2317C295.314 46.7086 293.411 38.9003 286.171 33.8013C279.55 28.9041 265.493 20.5535 244.002 8.75501L175.192 -29.0795C131.174 -53.699 101.871 -79.3449 87.2817 -106.013C73.5131 -133.099 73.1864 -166.759 86.3014 -206.994C104.057 -261.466 132.257 -293.36 170.902 -302.676C210.164 -311.79 265.388 -304.746 336.573 -281.542C379.284 -267.62 415.929 -252.936 446.503 -237.492C477.897 -222.466 503.317 -208.017 522.763 -194.146L484.284 -82.4006L480.589 -80.5257C435.696 -112.963 383.54 -138.866 324.116 -158.236C295.023 -167.719 273.889 -172.209 260.715 -171.71C248.363 -171.628 240.27 -165.708 236.437 -153.947C234.419 -147.757 234.35 -142.301 236.235 -137.578C238.738 -132.654 245.574 -126.317 256.744 -118.567C268.115 -111.437 286.303 -101.055 311.306 -87.4269L374.848 -52.3348C409.984 -31.9798 433.501 -9.59368 445.399 14.8276C457.297 39.249 456.69 71.5798 443.575 111.815C432.074 147.098 416.392 173.141 396.533 189.95C376.876 206.14 350.161 213.526 316.386 212.104C283.231 210.883 239.726 201.495 185.873 183.942C145.019 170.625 107.866 156.46 74.4121 141.447C41.7791 126.016 12.7527 111.077 -12.6673 96.6278L24.5599 -17.5798L27.9507 -18.5288Z" fill="url(#paint1_linear_0_3)"/>
<path d="M882.191 385.233C862.842 385.773 836.885 383.475 804.321 378.339C772.577 372.785 735.657 363.15 693.565 349.429C640.331 332.077 597.056 310.439 563.736 284.513C531.237 258.169 510.839 225.155 502.545 185.474C494.454 145.174 500.196 95.0032 519.767 34.9602C546.401 -46.7478 584.239 -99.8072 633.284 -124.222C682.947 -148.435 747.086 -147.731 825.699 -122.106C882.028 -103.745 923.661 -81.2725 950.603 -54.6865C978.164 -27.8987 993.914 2.57136 997.847 36.7223C1002.6 70.456 998.418 107.44 985.303 147.675C981.469 159.436 976.713 171.925 971.036 185.14C965.978 198.556 960.096 211.359 953.382 223.551L948.458 226.054L642.979 126.48C638.434 155.129 645.275 177.216 663.496 192.743C682.336 208.47 715.895 224.203 764.177 239.941C796.365 250.433 823.184 258.49 844.633 264.112C866.904 269.317 889.687 274.005 912.98 278.173L915.785 282.171L882.191 385.233ZM861.388 89.8239C866.23 74.9679 867.891 61.4692 866.369 49.3321C865.668 36.7777 859.414 25.4969 847.612 15.487C836.012 4.85805 816.905 -4.79387 790.288 -13.47C751.291 -26.1815 723.381 -27.7465 706.562 -18.1639C690.564 -8.99856 679.036 6.41736 671.974 28.0823L861.388 89.8239Z" fill="url(#paint2_linear_0_3)"/>
<path d="M1128.1 481.824L979.54 433.399L1183.23 -191.479L1331.79 -143.055L1128.1 481.824Z" fill="url(#paint3_linear_0_3)"/>
<path d="M1642.94 633.208C1623.59 633.748 1597.64 631.45 1565.07 626.314C1533.33 620.76 1496.41 611.126 1454.32 597.406C1401.09 580.053 1357.81 558.414 1324.49 532.488C1291.99 506.145 1271.59 473.131 1263.3 433.45C1255.21 393.15 1260.95 342.978 1280.52 282.935C1307.15 201.227 1344.99 148.168 1394.03 123.753C1443.7 99.5399 1507.84 100.244 1586.45 125.869C1642.78 144.23 1684.42 166.704 1711.36 193.29C1738.92 220.078 1754.66 250.546 1758.6 284.697C1763.35 318.431 1759.17 355.416 1746.06 395.651C1742.22 407.412 1737.47 419.902 1731.79 433.116C1726.73 446.532 1720.85 459.334 1714.13 471.526L1709.21 474.029L1403.73 374.456C1399.19 403.105 1406.03 425.191 1424.25 440.718C1443.09 456.446 1476.65 472.179 1524.93 487.917C1557.12 498.409 1583.94 506.466 1605.39 512.089C1627.66 517.293 1650.44 521.98 1673.73 526.148L1676.54 530.146L1642.94 633.208ZM1622.14 337.799C1626.98 322.943 1628.64 309.444 1627.12 297.307C1626.42 284.753 1620.17 273.473 1608.37 263.463C1596.77 252.834 1577.66 243.181 1551.04 234.505C1512.04 221.794 1484.14 220.23 1467.32 229.812C1451.32 238.978 1439.79 254.392 1432.72 276.057L1622.14 337.799Z" fill="url(#paint4_linear_0_3)"/>
<path d="M2134.87 665.164L2095.52 785.869C2078.03 787.015 2053.61 784.19 2022.27 777.398C1990.93 770.607 1958.24 761.664 1924.2 750.567C1875.3 734.627 1836.66 714.501 1808.29 690.189C1780.54 666.079 1764.07 634.688 1758.87 596.016C1754.29 557.546 1761.38 508.498 1780.13 448.872C1800.1 387.591 1824 342.653 1851.81 314.056C1880.24 285.66 1913.08 269.998 1950.32 267.074C1987.57 264.149 2029.1 270.153 2074.9 285.084C2102.14 293.962 2130.31 305.201 2159.43 318.802C2188.55 332.402 2211.7 345.425 2228.87 357.87L2189.25 482.592L2185.85 483.541C2168.49 473.774 2149.59 464.534 2129.15 455.816C2108.71 447.099 2088.28 439.41 2067.85 432.752C2026.38 419.233 1995.07 417.59 1973.93 427.819C1952.8 438.048 1936.27 461.423 1924.37 497.944C1915.29 525.799 1911.94 547.643 1914.31 563.481C1916.68 579.318 1925.2 592.028 1939.88 601.607C1954.56 611.186 1975.84 620.514 2003.69 629.593C2025.36 636.655 2046.39 642.488 2066.81 647.087C2087.22 651.687 2108.97 656.379 2132.06 661.166L2134.87 665.164Z" fill="url(#paint5_linear_0_3)"/>
<path d="M2229 690.71L2292.56 495.725L2236.85 477.566L2276.19 356.861L2345.83 379.56L2409.7 278.151L2516.48 312.955L2480.46 423.445L2581.67 456.435L2542.33 577.14L2441.12 544.15L2388.15 706.639C2382.5 723.971 2380.74 736.746 2382.85 744.968C2385.17 752.57 2394.06 758.894 2409.54 763.938C2419.44 767.166 2430.06 770.289 2441.41 773.301C2452.95 775.695 2464.5 778.089 2476.04 780.483L2478.22 783.247L2438.88 903.952C2406.34 902.934 2365.62 894.455 2316.72 878.515C2267.82 862.575 2236.79 840.134 2223.63 811.192C2210.46 782.249 2212.25 742.087 2229 690.71Z" fill="url(#paint6_linear_0_3)"/>
<path d="M2561.13 702.42C2588.17 619.474 2625.29 565.494 2672.47 540.474C2719.66 515.454 2785.34 516.661 2869.53 544.102C2925.86 562.463 2968.42 585.239 2997.22 612.43C3026.02 639.622 3042.2 672.972 3045.76 712.478C3050.13 751.567 3043.34 798.656 3025.38 853.748C3007.63 908.22 2985.47 949.959 2958.89 978.959C2932.94 1008.16 2900.32 1025.26 2861.03 1030.26C2821.94 1034.63 2774.23 1027.64 2717.9 1009.28C2633.71 981.842 2579.83 944.421 2556.25 897.018C2532.88 848.996 2534.5 784.128 2561.13 702.42ZM2759.36 882.076C2795.26 893.779 2821.93 893.912 2839.35 882.473C2857.6 870.616 2873.18 844.88 2886.09 805.264C2898.4 767.505 2900.67 738.457 2892.92 718.126C2885.99 697.378 2864.57 681.154 2828.67 669.451C2794.01 658.152 2767.14 658.638 2748.08 670.912C2729.83 682.769 2714.56 707.579 2702.25 745.338C2689.33 784.954 2686.75 814.927 2694.51 835.258C2703.08 855.172 2724.7 870.777 2759.36 882.076Z" fill="url(#paint7_linear_0_3)"/>
<path d="M3180.05 1150.68L3031.49 1102.25L3178.88 650.076L3299.59 689.422L3281.39 786.207L3284.18 787.114C3301.05 754.266 3322.43 733.845 3348.32 725.849C3374.41 717.234 3408.19 719.683 3449.66 733.202C3466.37 738.65 3481.24 744.524 3494.25 750.82C3507.46 756.497 3518.51 761.467 3527.39 765.732L3480.18 910.578L3477.72 911.829C3468.62 906.125 3457.88 900.224 3445.48 894.13C3433.71 888.238 3419.77 882.671 3403.68 877.425C3380.78 869.959 3358.83 866.913 3337.83 868.288C3317.46 869.865 3298.48 879.769 3280.9 898.004C3264.14 915.821 3248.89 945.776 3235.17 987.868L3180.05 1150.68Z" fill="url(#paint8_linear_0_3)"/>
</g>
</g>
<defs>
<filter id="filter0_d_0_3" x="0" y="0" width="1804" height="396" filterUnits="userSpaceOnUse" color-interpolation-filters="sRGB">
<feFlood flood-opacity="0" result="BackgroundImageFix"/>
<feColorMatrix in="SourceAlpha" type="matrix" values="0 0 0 0 0 0 0 0 0 0 0 0 0 0 0 0 0 0 127 0" result="hardAlpha"/>
<feOffset dy="4"/>
<feGaussianBlur stdDeviation="2"/>
<feComposite in2="hardAlpha" operator="out"/>
<feColorMatrix type="matrix" values="0 0 0 0 0 0 0 0 0 0 0 0 0 0 0 0 0 0 0.25 0"/>
<feBlend mode="normal" in2="BackgroundImageFix" result="effect1_dropShadow_0_3"/>
<feBlend mode="normal" in="SourceGraphic" in2="effect1_dropShadow_0_3" result="shape"/>
</filter>
<linearGradient id="paint0_linear_0_3" x1="1174.14" y1="6.22491" x2="1087.47" y2="423.265" gradientUnits="userSpaceOnUse">
<stop stop-color="#2DC53A"/>
<stop offset="1" stop-color="#219B1B"/>
</linearGradient>
<linearGradient id="paint1_linear_0_3" x1="2191.38" y1="-214.063" x2="1272.38" y2="1039.05" gradientUnits="userSpaceOnUse">
<stop stop-color="#138E1E"/>
<stop offset="1" stop-color="#229B1A"/>
</linearGradient>
<linearGradient id="paint2_linear_0_3" x1="2191.38" y1="-214.063" x2="1272.38" y2="1039.05" gradientUnits="userSpaceOnUse">
<stop stop-color="#138E1E"/>
<stop offset="1" stop-color="#229B1A"/>
</linearGradient>
<linearGradient id="paint3_linear_0_3" x1="2191.38" y1="-214.063" x2="1272.38" y2="1039.05" gradientUnits="userSpaceOnUse">
<stop stop-color="#138E1E"/>
<stop offset="1" stop-color="#229B1A"/>
</linearGradient>
<linearGradient id="paint4_linear_0_3" x1="2191.38" y1="-214.063" x2="1272.38" y2="1039.05" gradientUnits="userSpaceOnUse">
<stop stop-color="#138E1E"/>
<stop offset="1" stop-color="#229B1A"/>
</linearGradient>
<linearGradient id="paint5_linear_0_3" x1="2191.38" y1="-214.063" x2="1272.38" y2="1039.05" gradientUnits="userSpaceOnUse">
<stop stop-color="#138E1E"/>
<stop offset="1" stop-color="#229B1A"/>
</linearGradient>
<linearGradient id="paint6_linear_0_3" x1="2191.38" y1="-214.063" x2="1272.38" y2="1039.05" gradientUnits="userSpaceOnUse">
<stop stop-color="#138E1E"/>
<stop offset="1" stop-color="#229B1A"/>
</linearGradient>
<linearGradient id="paint7_linear_0_3" x1="2191.38" y1="-214.063" x2="1272.38" y2="1039.05" gradientUnits="userSpaceOnUse">
<stop stop-color="#138E1E"/>
<stop offset="1" stop-color="#229B1A"/>
</linearGradient>
<linearGradient id="paint8_linear_0_3" x1="2191.38" y1="-214.063" x2="1272.38" y2="1039.05" gradientUnits="userSpaceOnUse">
<stop stop-color="#138E1E"/>
<stop offset="1" stop-color="#229B1A"/>
</linearGradient>
<clipPath id="clip0_0_3">
<rect width="1796" height="388" fill="white" transform="translate(4)"/>
</clipPath>
</defs>
</svg>
