<svg width="40" height="40" viewBox="0 0 40 40" fill="none" xmlns="http://www.w3.org/2000/svg">
<rect width="40" height="40" rx="4" fill="#00CA51"/>
<path d="M10.0513 8.33203C9.00947 8.33203 8.16496 9.17655 8.16496 10.2263V29.4449C8.16496 30.4867 9.00947 31.3391 10.0513 31.3391H33.1137C34.1555 31.3391 35 30.4946 35 29.4449V10.2263C35 9.18444 34.1555 8.33203 33.1137 8.33203H10.0513Z" fill="#0E212E"/>
<path d="M30.2486 8.33203H6.57853C5.71034 8.33203 5 9.04237 5 9.91056V29.7606C5 30.6288 5.71034 31.3391 6.57853 31.3391H30.2486C31.1168 31.3391 31.8272 30.6288 31.8272 29.7606V9.91056C31.8272 9.04237 31.1168 8.33203 30.2486 8.33203Z" fill="white"/>
<path d="M27.8887 28.0637H24.7316C24.2957 28.0637 23.9424 28.417 23.9424 28.8529C23.9424 29.2888 24.2957 29.6422 24.7316 29.6422H27.8887C28.3246 29.6422 28.678 29.2888 28.678 28.8529C28.678 28.417 28.3246 28.0637 27.8887 28.0637Z" fill="#071824"/>
<path d="M27.3757 12.2468H9.45935C9.06704 12.2468 8.74901 12.5648 8.74901 12.9571V25.1355C8.74901 25.5278 9.06704 25.8458 9.45935 25.8458H27.3757C27.768 25.8458 28.086 25.5278 28.086 25.1355V12.9571C28.086 12.5648 27.768 12.2468 27.3757 12.2468Z" fill="#0E212E"/>
<path d="M22.1113 18.1189L16.547 14.9066C15.8287 14.4962 14.9369 15.0092 14.9369 15.838V22.2626C14.9369 23.0913 15.8287 23.6043 16.547 23.1939L22.1113 19.9816C22.8295 19.5712 22.8295 18.5372 22.1113 18.1189Z" fill="white"/>
</svg>
