<svg width="40" height="40" viewBox="0 0 40 40" fill="none" xmlns="http://www.w3.org/2000/svg">
<rect width="40" height="40" rx="4" fill="#00CA51"/>
<path d="M19.6166 35C24.8989 35 29.187 34.1323 29.187 33.0539C29.187 31.9756 24.8989 31.1078 19.6166 31.1078C14.3344 31.1078 10.0463 31.9756 10.0463 33.0539C10.0463 34.1323 14.3344 35 19.6166 35Z" fill="#071824"/>
<path d="M19.9957 33.3151C27.8138 33.3151 34.1575 26.9798 34.1575 19.1533C34.1575 11.3269 27.8138 5 19.9957 5C12.1777 5 5.83398 11.3353 5.83398 19.1618C5.83398 26.9882 12.1693 33.3235 19.9957 33.3235V33.3151Z" fill="white"/>
<path d="M19.9957 24.1997L25.2948 20.3496L23.2729 14.1154H16.7186L14.6882 20.3496L19.9957 24.1997Z" fill="#071824"/>
<path d="M32.1609 11.9419C30.3496 8.90059 27.4431 6.60067 23.9806 5.5813L26.0699 11.2174L32.1609 11.9419Z" fill="#071824"/>
<path d="M31.6638 27.1651C33.2308 24.8905 34.1491 22.1272 34.1491 19.1618C34.1491 19.0859 34.1406 19.0101 34.1406 18.9343L29.9705 21.9587L31.6638 27.1651Z" fill="#071824"/>
<path d="M5.84241 18.9343C5.84241 19.0101 5.83398 19.0859 5.83398 19.1618C5.83398 22.1356 6.75227 24.8905 8.31924 27.1651L10.0126 21.9587L5.84241 18.9343Z" fill="#071824"/>
<path d="M14.9494 32.7759C16.5332 33.3319 18.2266 33.6436 19.9957 33.6436C21.7649 33.6436 23.4582 33.3235 25.0421 32.7759L19.9957 29.1112L14.9494 32.7759Z" fill="#071824"/>
<path d="M16.0109 5.5813C12.5484 6.60067 9.6419 8.90059 7.83061 11.9419L13.9216 11.2174L16.0109 5.5813Z" fill="#071824"/>
</svg>
