
<svg xmlns="http://www.w3.org/2000/svg" width="40" height="40" fill="none" viewBox="0 0 40 40"><path fill="#fff" d="M19.53.22c9.198.006 13.797.008 16.652 2.908 2.855 2.9 2.851 7.565 2.843 16.894-.008 9.329-.012 13.993-2.872 16.89-2.86 2.897-7.46 2.894-16.657 2.889-9.198-.006-13.797-.009-16.652-2.908C-.011 33.993-.007 29.328 0 19.999.009 10.67.013 6.005 2.873 3.11 5.733.212 10.333.215 19.53.22Z"/><path fill="#0038FF" d="M2.664 3.212C.008 6.086.008 10.557.008 19.5v1c0 8.943 0 13.414 2.656 16.288.178.192.363.378.556.555C6.094 40 10.565 40 19.508 40c8.942 0 13.414 0 16.288-2.657.192-.178.377-.363.555-.555.952-1.03 1.563-2.266 1.955-3.84-.935.052-2.058.052-3.422.052H18.205c-3.864 0-5.796 0-6.997-1.176-1.2-1.176-1.2-3.07-1.2-6.855v-5.302h29V19.5c0-2.13 0-4.005-.036-5.667H10.02c.043-2.371.247-3.735 1.188-4.657C12.408 8 14.341 8 18.205 8h16.68c1.469 0 2.66 0 3.636.065-.37-2.07-1.022-3.611-2.17-4.853a9.977 9.977 0 0 0-.555-.555C32.922 0 28.45 0 19.508 0 10.565 0 6.094 0 3.22 2.657a9.998 9.998 0 0 0-.556.555Z"/></svg>
