<svg xmlns="http://www.w3.org/2000/svg" width="40" height="40" fill="none" viewBox="0 0 40 40"><path fill="#EBEBEB" d="M19.678 0c9.27.007 13.905.01 16.783 2.903 2.878 2.892 2.875 7.544 2.868 16.849-.006 9.304-.01 13.957-2.89 16.845-2.883 2.889-7.517 2.886-16.787 2.88-9.27-.007-13.905-.01-16.783-2.903C-.009 33.682-.006 29.03.001 19.725.007 10.421.01 5.768 2.89 2.88 5.774-.01 10.409-.006 19.679 0Z"/><path fill="#5B57A2" d="m7.232 11.739 3.865 6.52v3.979l-3.86 6.508-.005-17.007Z"/><path fill="#D90751" d="m22.072 15.887 3.622-2.095 7.412-.007-11.034 6.38v-4.278Z"/><path fill="#FAB718" d="m22.052 11.7.02 8.634-3.874-2.247V5.181l3.854 6.52Z"/><path fill="#ED6F26" d="m33.106 13.785-7.412.007-3.642-2.091-3.854-6.52 14.908 8.604Z"/><path fill="#63B22F" d="M22.072 28.782v-4.189l-3.874-2.204.002 12.919 3.872-6.526Z"/><path fill="#1487C9" d="M25.685 26.706 11.097 18.26l-3.865-6.521L33.09 26.697l-7.405.009Z"/><path fill="#017F36" d="m18.2 35.308 3.872-6.526 3.613-2.076 7.405-.009-14.89 8.61Z"/><path fill="#984995" d="m7.237 28.746 10.993-6.357-3.696-2.14-3.437 1.989-3.86 6.508Z"/></svg>