<svg id="Слой_1" data-name="Слой 1" xmlns="http://www.w3.org/2000/svg" xmlns:xlink="http://www.w3.org/1999/xlink" viewBox="0 0 1417.32 1309.41"><defs><style>.cls-1{fill:url(#Безымянный_градиент_3);}.cls-2{fill:#0a0203;}</style><radialGradient id="Безымянный_градиент_3" cx="-2149.04" cy="1781.29" r="7.14" gradientTransform="matrix(0, -12.77, -89.96, 0, 161676.82, -25382.42)" gradientUnits="userSpaceOnUse"><stop offset="0" stop-color="#9a4d50"/><stop offset="1" stop-color="#bc7f6e"/></radialGradient></defs><path class="cls-1" d="M937.36,2068.32H948.6v-67.2l67.67,70.91v-93.87H1005v66.61l-67.67-70.91Zm-78,0h48.42V2058H870.58V2024h36.11v-10.28H870.58v-25.23h37.18v-10.29H859.34Zm235.39-79.87h-21.4v79.87h-11.24v-79.87h-21.41v-10.29h54Zm25.6,79.87h48.42V2058h-37.18V2024h36.1v-10.28h-36.1v-25.23h37.18v-10.29h-48.42Zm133.14-64.45c0,12.92-8.61,23.68-21.65,25.24l28.46,39.21h-13.63l-26.55-38.14h-4.66v38.14H1204.2v-90.16h13.64c8,0,16.61.12,23.79,4.19C1249.16,1986.77,1253.47,1995.27,1253.47,2003.87Zm-35-15.66h-3v32.64H1219c11.48,0,23.91-2.15,23.91-16.5C1242.94,1990.24,1229.55,1988.21,1218.43,1988.21Zm91.71.24h21.4v-10.29h-54v10.29h21.4v79.87h11.24Zm115,79.87-10.28-22.6h-41.37l-10.28,22.6h-12.08l43-94,43,94Zm-31-69.35-16,36.47h32Zm78.21-20.81h-11.24v90.16h11.24Zm40.23,90.16h-11.24v-94.46l67.68,70.91v-66.61h11.24V2072l-67.68-70.91Zm144,1.92,27-61.47h.24l10.52,59.55H1706l-18.41-94-31,71-31-71-18.41,94h11.59l10.53-59.55h.24Zm130.52-1.92h-48.43v-90.16h48.43v10.29H1750v25.23h36.12V2024H1750V2058h37.19Zm30.79,0h11.24v-67.2l67.67,70.91v-93.87h-11.24v66.61l-67.67-70.91Zm157.37-79.87h-21.4v79.87h-11.24v-79.87h-21.4v-10.29h54Z" transform="translate(-708.66 -762.62)"/><path class="cls-2" d="M708.66,1857.73H735.5V1697.31l161.56,169.27V1642.5H870.23v159L708.66,1632.23Zm235.26,0h115.6v-24.55H970.75v-81.35H1057v-24.55h-86.2v-60.23h88.77V1642.5H943.92Zm280.73-190.68h-51.1v190.68h-26.83V1667.05h-51.09V1642.5h129ZM1375,1749.26v24.55h55.66c-1.15,35.11-37.11,63.94-70.51,63.94-46.53,0-83.63-42.82-83.63-87.92,0-48.24,37.67-87.34,85.91-87.34,26.27,0,52.24,14,67.66,35.1l18.83-18c-21.12-26.55-54.23-41.67-87.63-41.67-61.94,0-111.61,50.8-111.61,112.75,0,59.65,48.53,111.61,108.76,111.61s101.9-45.39,101.9-104.47v-8.57Zm288.66,108.47-24.55-54h-98.76l-24.55,54H1487l102.76-224.36,102.76,224.36Zm-73.93-165.56-38.25,87.06H1628Zm250.37,170.13,64.51-146.72h.57l25.12,142.15H1958l-44-224.36-73.93,169.56-73.93-169.56-44,224.36h27.69L1775,1715.58h.57Zm285.9-4.57H2010.38V1642.5H2126v24.55h-88.78v60.23h86.21v24.55h-86.21v81.35H2126Z" transform="translate(-708.66 -762.62)"/><polygon points="568.36 770.71 715.02 770.71 861.67 770.71 715.02 622.24 568.36 770.71"/><path d="M1671.3,1130.89l-196.83,199.26,196.83,199.26,196.83-199.26Zm-131.25,199.25,131.25-131.25,131.25,131.25L1671.3,1461.39Z" transform="translate(-708.66 -762.62)"/><path d="M1163.35,1130.89,966.52,1330.15l196.83,199.26,196.83-199.26ZM1032.1,1330.14l131.25-131.25,131.25,131.25-131.25,131.25Z" transform="translate(-708.66 -762.62)"/><path d="M1420.5,1283.27h0L1677.65,1023,1420.5,762.62,1163.35,1023h0l19.72,20Zm0-424.35,164,164-164,164-164-164Z" transform="translate(-708.66 -762.62)"/><path d="M1671.3,1247.56l-82.58,82.58,82.58,82.58,82.58-82.58Zm19.44,102c-14.58,15.76-19.44,29.16-19.44,29.16s-2.43-9.72-17-26.73-31.59-21.87-31.59-21.87,14.58-4.86,29.16-19.44,19.44-29.16,19.44-29.16a89.35,89.35,0,0,0,48.6,48.6S1705.32,1333.83,1690.74,1349.59Z" transform="translate(-708.66 -762.62)"/><path d="M1420.5,907.6l-115.34,115.34,115.34,115.34,115.34-115.34Zm25.4,140.74c-19.05,20.59-25.4,38.1-25.4,38.1s-3.17-12.7-22.22-34.92S1357,1023,1357,1023s19-6.35,38.1-25.4,25.4-38.1,25.4-38.1A116.74,116.74,0,0,0,1484,1023S1465,1027.76,1445.9,1048.34Z" transform="translate(-708.66 -762.62)"/><path d="M1163.35,1247.56l-82.58,82.58,82.58,82.58,82.58-82.58Zm19.44,102c-14.58,15.76-19.44,29.16-19.44,29.16s-2.43-9.72-17-26.73-31.59-21.87-31.59-21.87,14.58-4.86,29.16-19.44,19.44-29.16,19.44-29.16a89.35,89.35,0,0,0,48.6,48.6S1197.37,1333.83,1182.79,1349.59Z" transform="translate(-708.66 -762.62)"/></svg>