<svg width="1860" height="631" viewBox="0 0 1860 631" fill="none" xmlns="http://www.w3.org/2000/svg">
<g clip-path="url(#clip0_1_2)">
<path d="M1860 0H0V631H1860V0Z" fill="#272D39"/>
<path d="M430.403 161.504C458.35 169.379 489.341 173.317 523.379 173.317C539.86 173.317 552.222 172.781 560.463 171.707C568.704 170.633 574.256 168.844 577.123 166.338C579.989 163.832 581.422 160.431 581.422 156.135C581.422 150.05 579.094 146.292 574.437 144.861C570.137 143.429 561.358 141.459 548.101 138.953L505.644 130.9C478.414 125.531 458.708 117.118 446.526 105.663C434.702 93.8508 428.791 76.311 428.791 53.0439C428.791 21.5438 438.106 0.0664008 456.737 -11.3882C475.726 -22.8428 505.822 -28.5701 547.026 -28.5701C571.748 -28.5701 593.426 -27.1382 612.057 -24.2746C631.047 -21.7689 646.812 -18.5473 659.352 -14.6098L658.277 50.3603L656.664 51.97C627.642 42.6632 595.934 38.0097 561.538 38.0097C544.698 38.0097 532.875 39.2637 526.067 41.7694C519.618 43.9171 516.393 48.3904 516.393 55.1916C516.393 58.7711 517.288 61.6348 519.079 63.7825C521.229 65.9303 525.887 68.078 533.053 70.2257C540.219 72.0155 551.506 74.3434 566.912 77.207L606.144 84.7241C628 89.3775 644.123 97.0724 654.514 107.811C664.904 118.55 670.101 135.554 670.101 158.821C670.101 179.224 666.337 195.51 658.813 207.681C651.289 219.493 638.571 227.906 620.656 232.918C603.1 237.929 578.736 240.435 547.565 240.435C523.917 240.435 502.062 239.361 481.997 237.213C462.291 234.708 444.555 231.844 428.791 228.622V162.578L430.403 161.504Z" fill="url(#paint0_linear_1_2)"/>
<path d="M946.231 227.01C936.198 230.59 922.225 233.812 904.31 236.675C886.754 239.181 865.793 240.435 841.429 240.435C810.616 240.435 784.282 236.497 762.427 228.622C740.929 220.389 724.626 206.607 713.519 187.277C702.412 167.59 696.859 140.385 696.859 105.663C696.859 58.4132 707.608 24.2296 729.105 3.11016C750.961 -18.0092 784.641 -28.5701 830.144 -28.5701C862.748 -28.5701 888.365 -23.9166 906.996 -14.6098C925.986 -5.30295 939.423 7.94144 947.305 25.1233C955.546 41.9472 959.665 61.9927 959.665 85.2599C959.665 92.061 959.307 99.4003 958.591 107.275C958.232 115.15 957.338 122.845 955.905 130.362L953.755 132.51H776.936C779.444 148.26 786.791 158.641 798.972 163.652C811.513 168.664 831.755 171.169 859.702 171.169C878.333 171.169 893.74 170.811 905.922 170.095C918.462 169.022 931.182 167.59 944.081 165.8L946.231 167.412V227.01ZM884.963 76.1332C884.963 67.5422 883.529 60.203 880.663 54.1177C878.155 47.6745 872.959 42.8433 865.076 39.6217C857.194 36.0421 845.55 34.2523 830.144 34.2523C807.571 34.2523 792.701 38.1898 785.535 46.0649C778.728 53.5819 775.325 63.6047 775.325 76.1332H884.963Z" fill="url(#paint1_linear_1_2)"/>
<path d="M1091.37 235.601H1005.38V-125.754H1091.37V235.601Z" fill="url(#paint2_linear_1_2)"/>
<path d="M1386.57 227.01C1376.54 230.59 1362.57 233.812 1344.65 236.675C1327.1 239.181 1306.14 240.435 1281.77 240.435C1250.96 240.435 1224.62 236.497 1202.77 228.622C1181.27 220.389 1164.97 206.607 1153.86 187.277C1142.76 167.59 1137.2 140.385 1137.2 105.663C1137.2 58.4132 1147.95 24.2296 1169.45 3.11016C1191.3 -18.0092 1224.98 -28.5701 1270.49 -28.5701C1303.09 -28.5701 1328.71 -23.9166 1347.34 -14.6098C1366.33 -5.30295 1379.76 7.94144 1387.65 25.1233C1395.89 41.9472 1400.01 61.9927 1400.01 85.2599C1400.01 92.061 1399.65 99.4003 1398.93 107.275C1398.58 115.15 1397.68 122.845 1396.25 130.362L1394.1 132.51H1217.28C1219.79 148.26 1227.13 158.641 1239.31 163.652C1251.85 168.664 1272.1 171.169 1300.05 171.169C1318.68 171.169 1334.08 170.811 1346.27 170.095C1358.81 169.022 1371.52 167.59 1384.42 165.8L1386.57 167.412V227.01ZM1325.3 76.1332C1325.3 67.5422 1323.87 60.203 1321 54.1177C1318.5 47.6745 1313.3 42.8433 1305.42 39.6217C1297.54 36.0421 1285.89 34.2523 1270.49 34.2523C1247.91 34.2523 1233.04 38.1898 1225.88 46.0649C1219.07 53.5819 1215.67 63.6047 1215.67 76.1332H1325.3Z" fill="url(#paint3_linear_1_2)"/>
<path d="M1649.41 159.895V229.696C1640.46 233.276 1627.2 235.959 1609.64 237.749C1592.09 239.539 1573.45 240.435 1553.75 240.435C1525.44 240.435 1501.8 236.497 1482.81 228.622C1464.18 220.747 1450.2 207.145 1440.89 187.815C1431.93 168.486 1427.27 141.639 1426.91 107.275C1426.91 71.8377 1431.75 44.2751 1441.43 24.5875C1451.46 4.89995 1465.97 -8.8825 1484.96 -16.7575C1503.95 -24.6326 1526.7 -28.5701 1553.21 -28.5701C1568.98 -28.5701 1585.64 -27.4962 1603.19 -25.3485C1620.75 -23.2007 1635.08 -20.3371 1646.19 -16.7575L1646.73 55.1916L1645.11 56.2654C1634.36 54.1177 1622.9 52.5081 1610.72 51.4342C1598.54 50.3603 1586.53 49.8222 1574.71 49.8222C1550.7 49.8222 1534.04 54.2979 1524.73 63.2468C1515.41 72.1956 1510.75 87.2298 1510.75 108.349C1510.75 124.457 1512.73 136.448 1516.67 144.323C1520.61 152.198 1527.24 157.389 1536.55 159.895C1545.87 162.4 1558.59 163.652 1574.71 163.652C1587.25 163.652 1599.25 163.116 1610.72 162.043C1622.18 160.969 1634.36 159.715 1647.26 158.283L1649.41 159.895Z" fill="url(#paint4_linear_1_2)"/>
<path d="M1703.02 157.209V44.4529H1670.78V-25.3485H1711.09L1727.21 -89.2424H1789.01V-25.3485H1847.59V44.4529H1789.01V138.417C1789.01 148.44 1790.27 155.419 1792.78 159.357C1795.28 162.936 1801.02 164.726 1809.97 164.726C1815.71 164.726 1821.8 164.548 1828.25 164.19C1834.7 163.474 1841.15 162.758 1847.59 162.043L1849.21 163.116V232.918C1832.01 237.929 1809.26 240.435 1780.95 240.435C1752.65 240.435 1732.58 233.992 1720.76 221.105C1708.94 208.219 1703.02 186.919 1703.02 157.209Z" fill="url(#paint5_linear_1_2)"/>
</g>
<defs>
<linearGradient id="paint0_linear_1_2" x1="549.446" y1="-28.5701" x2="549.446" y2="240.435" gradientUnits="userSpaceOnUse">
<stop stop-color="#414958"/>
<stop offset="1" stop-color="#262D3A"/>
</linearGradient>
<linearGradient id="paint1_linear_1_2" x1="828.262" y1="-28.5701" x2="828.262" y2="240.435" gradientUnits="userSpaceOnUse">
<stop stop-color="#414958"/>
<stop offset="1" stop-color="#262D3A"/>
</linearGradient>
<linearGradient id="paint2_linear_1_2" x1="1048.38" y1="-125.754" x2="1048.38" y2="235.601" gradientUnits="userSpaceOnUse">
<stop stop-color="#414958"/>
<stop offset="1" stop-color="#262D3A"/>
</linearGradient>
<linearGradient id="paint3_linear_1_2" x1="1268.6" y1="-28.5701" x2="1268.6" y2="240.435" gradientUnits="userSpaceOnUse">
<stop stop-color="#414958"/>
<stop offset="1" stop-color="#262D3A"/>
</linearGradient>
<linearGradient id="paint4_linear_1_2" x1="1538.16" y1="-28.5701" x2="1538.16" y2="240.435" gradientUnits="userSpaceOnUse">
<stop stop-color="#414958"/>
<stop offset="1" stop-color="#262D3A"/>
</linearGradient>
<linearGradient id="paint5_linear_1_2" x1="1759.99" y1="-89.2424" x2="1759.99" y2="240.435" gradientUnits="userSpaceOnUse">
<stop stop-color="#414958"/>
<stop offset="1" stop-color="#262D3A"/>
</linearGradient>
<clipPath id="clip0_1_2">
<rect width="1860" height="631" fill="white"/>
</clipPath>
</defs>
</svg>
