<svg width="343" height="534" viewBox="0 0 343 534" fill="none" xmlns="http://www.w3.org/2000/svg">
<g clip-path="url(#clip0_0_27)">
<mask id="mask0_0_27" style="mask-type:luminance" maskUnits="userSpaceOnUse" x="0" y="0" width="343" height="534">
<path d="M343 0H0V534H343V0Z" fill="white"/>
</mask>
<g mask="url(#mask0_0_27)">
<mask id="mask1_0_27" style="mask-type:luminance" maskUnits="userSpaceOnUse" x="0" y="0" width="343" height="535">
<path d="M327 0H16C7.16344 0 0 7.16344 0 16V519C0 527.837 7.16344 535 16 535H327C335.837 535 343 527.837 343 519V16C343 7.16344 335.837 0 327 0Z" fill="white"/>
</mask>
<g mask="url(#mask1_0_27)">
<path d="M327 0H16C7.16344 0 0 7.16344 0 16V519C0 527.837 7.16344 535 16 535H327C335.837 535 343 527.837 343 519V16C343 7.16344 335.837 0 327 0Z" fill="#20242D"/>
<mask id="mask2_0_27" style="mask-type:luminance" maskUnits="userSpaceOnUse" x="18" y="142" width="267" height="63">
<path d="M277 142H26C21.5817 142 18 145.582 18 150V197C18 201.418 21.5817 205 26 205H277C281.418 205 285 201.418 285 197V150C285 145.582 281.418 142 277 142Z" fill="white"/>
</mask>
<g mask="url(#mask2_0_27)">
<path d="M277 142H26C21.5817 142 18 145.582 18 150V197C18 201.418 21.5817 205 26 205H277C281.418 205 285 201.418 285 197V150C285 145.582 281.418 142 277 142Z" fill="#272D39"/>
<path d="M36.456 165H30.792V156.996H36.456V158.496H32.496V160.188H36.372V161.688H32.496V163.5H36.456V165ZM43.1881 165H41.6641V161.496C41.6641 160.692 41.2441 160.416 40.5961 160.416C39.9961 160.416 39.5281 160.752 39.2761 161.1V165H37.7521V159.204H39.2761V159.96C39.6481 159.516 40.3561 159.06 41.3041 159.06C42.5761 159.06 43.1881 159.78 43.1881 160.908V165ZM47.0773 167.352C46.0813 167.352 45.3133 167.124 44.5813 166.488L45.2653 165.384C45.7333 165.9 46.3453 166.104 47.0773 166.104C47.8093 166.104 48.6733 165.78 48.6733 164.64V164.052C48.2173 164.628 47.5933 164.964 46.8853 164.964C45.4333 164.964 44.3293 163.944 44.3293 162.012C44.3293 160.116 45.4213 159.06 46.8853 159.06C47.5813 159.06 48.2053 159.36 48.6733 159.948V159.204H50.2093V164.604C50.2093 166.812 48.5053 167.352 47.0773 167.352ZM47.3653 163.608C47.8693 163.608 48.4213 163.32 48.6733 162.948V161.076C48.4213 160.692 47.8693 160.416 47.3653 160.416C46.5013 160.416 45.9013 161.016 45.9013 162.012C45.9013 163.008 46.5013 163.608 47.3653 163.608ZM53.2448 165H51.7208V156.996H53.2448V165ZM55.512 158.58C55.02 158.58 54.6 158.172 54.6 157.668C54.6 157.164 55.02 156.768 55.512 156.768C56.016 156.768 56.424 157.164 56.424 157.668C56.424 158.172 56.016 158.58 55.512 158.58ZM56.28 165H54.756V159.204H56.28V165ZM59.8792 165.144C58.8712 165.144 57.8992 164.808 57.2872 164.244L57.9472 163.176C58.3672 163.572 59.2312 163.968 59.9512 163.968C60.6112 163.968 60.9232 163.704 60.9232 163.344C60.9232 162.384 57.4792 163.164 57.4792 160.884C57.4792 159.912 58.3312 159.06 59.8552 159.06C60.8392 159.06 61.6192 159.396 62.1952 159.852L61.5832 160.896C61.2352 160.524 60.5752 160.224 59.8672 160.224C59.3152 160.224 58.9552 160.476 58.9552 160.8C58.9552 161.664 62.3872 160.944 62.3872 163.284C62.3872 164.34 61.4872 165.144 59.8792 165.144ZM68.9579 165H67.4339V161.472C67.4339 160.668 67.0139 160.416 66.3539 160.416C65.7659 160.416 65.2979 160.752 65.0339 161.1V165H63.5099V156.996H65.0339V159.96C65.4059 159.516 66.1259 159.06 67.0739 159.06C68.3459 159.06 68.9579 159.756 68.9579 160.884V165ZM76.4212 165.144C74.8852 165.144 73.7812 164.628 73.0372 163.872L73.9612 162.576C74.5252 163.164 75.4012 163.656 76.5052 163.656C77.4412 163.656 77.8972 163.224 77.8972 162.768C77.8972 161.352 73.2892 162.324 73.2892 159.312C73.2892 157.98 74.4412 156.876 76.3252 156.876C77.5972 156.876 78.6532 157.26 79.4452 157.992L78.4972 159.24C77.8492 158.64 76.9852 158.364 76.1692 158.364C75.4372 158.364 75.0292 158.688 75.0292 159.168C75.0292 160.44 79.6252 159.588 79.6252 162.576C79.6252 164.04 78.5812 165.144 76.4212 165.144ZM86.1725 165H84.6485V164.268C84.2525 164.712 83.5565 165.144 82.6085 165.144C81.3365 165.144 80.7365 164.448 80.7365 163.32V159.204H82.2605V162.72C82.2605 163.524 82.6805 163.788 83.3285 163.788C83.9165 163.788 84.3845 163.464 84.6485 163.128V159.204H86.1725V165ZM90.9977 165.144C90.3137 165.144 89.6777 164.856 89.2097 164.256V167.208H87.6857V159.204H89.2097V159.936C89.6537 159.372 90.2897 159.06 90.9977 159.06C92.4857 159.06 93.5657 160.164 93.5657 162.096C93.5657 164.028 92.4857 165.144 90.9977 165.144ZM90.5177 163.788C91.3937 163.788 91.9817 163.104 91.9817 162.096C91.9817 161.1 91.3937 160.416 90.5177 160.416C90.0257 160.416 89.4617 160.704 89.2097 161.076V163.128C89.4617 163.488 90.0257 163.788 90.5177 163.788ZM97.9938 165.144C97.3098 165.144 96.6738 164.856 96.2058 164.256V167.208H94.6818V159.204H96.2058V159.936C96.6498 159.372 97.2858 159.06 97.9938 159.06C99.4818 159.06 100.562 160.164 100.562 162.096C100.562 164.028 99.4818 165.144 97.9938 165.144ZM97.5138 163.788C98.3898 163.788 98.9778 163.104 98.9778 162.096C98.9778 161.1 98.3898 160.416 97.5138 160.416C97.0218 160.416 96.4578 160.704 96.2058 161.076V163.128C96.4578 163.488 97.0218 163.788 97.5138 163.788ZM104.366 165.144C102.458 165.144 101.306 163.752 101.306 162.096C101.306 160.452 102.458 159.06 104.366 159.06C106.286 159.06 107.438 160.452 107.438 162.096C107.438 163.752 106.286 165.144 104.366 165.144ZM104.366 163.788C105.314 163.788 105.854 163.008 105.854 162.096C105.854 161.196 105.314 160.416 104.366 160.416C103.418 160.416 102.89 161.196 102.89 162.096C102.89 163.008 103.418 163.788 104.366 163.788ZM110.093 165H108.569V159.204H110.093V159.996C110.501 159.48 111.221 159.06 111.941 159.06V160.548C111.833 160.524 111.689 160.512 111.521 160.512C111.017 160.512 110.345 160.8 110.093 161.172V165ZM114.837 165.144C113.769 165.144 113.193 164.592 113.193 163.56V160.536H112.233V159.204H113.193V157.62H114.729V159.204H115.905V160.536H114.729V163.152C114.729 163.512 114.921 163.788 115.257 163.788C115.485 163.788 115.701 163.704 115.785 163.62L116.109 164.772C115.881 164.976 115.473 165.144 114.837 165.144Z" fill="white"/>
<path d="M39.128 189H37.49V184.926H32.632V189H30.994V179.662H32.632V183.484H37.49V179.662H39.128V189ZM44.1912 189.168C42.1612 189.168 40.6492 187.754 40.6492 185.612C40.6492 183.652 42.0772 182.07 44.0792 182.07C46.1092 182.07 47.4112 183.624 47.4112 185.752V186.102H42.1892C42.3012 187.124 43.0712 187.964 44.3452 187.964C45.0032 187.964 45.7872 187.698 46.2632 187.222L46.9352 188.188C46.2632 188.832 45.2692 189.168 44.1912 189.168ZM45.9832 185.066C45.9552 184.268 45.4092 183.274 44.0792 183.274C42.8192 183.274 42.2452 184.24 42.1752 185.066H45.9832ZM48.5682 191.646L48.7922 190.33C48.9462 190.4 49.1842 190.442 49.3522 190.442C49.8142 190.442 50.1222 190.302 50.3182 189.854L50.6542 189.084L47.8822 182.238H49.4502L51.4242 187.306L53.3982 182.238H54.9802L51.7182 190.218C51.2562 191.366 50.4442 191.73 49.3942 191.744C49.1842 191.744 48.7782 191.702 48.5682 191.646ZM61.5289 189.168C60.3949 189.168 59.7929 188.552 59.7929 187.432V183.526H58.6729V182.238H59.7929V180.39H61.2629V182.238H62.6349V183.526H61.2629V187.068C61.2629 187.53 61.4869 187.866 61.9069 187.866C62.1869 187.866 62.4529 187.754 62.5649 187.628L62.9149 188.734C62.6489 188.986 62.2149 189.168 61.5289 189.168ZM70.0176 189H68.5476V184.744C68.5476 183.694 68.0016 183.372 67.1756 183.372C66.4336 183.372 65.7896 183.82 65.4396 184.282V189H63.9696V179.662H65.4396V183.162C65.8876 182.63 66.7696 182.07 67.8336 182.07C69.2896 182.07 70.0176 182.826 70.0176 184.212V189ZM75.0486 189.168C73.0186 189.168 71.5066 187.754 71.5066 185.612C71.5066 183.652 72.9346 182.07 74.9366 182.07C76.9666 182.07 78.2686 183.624 78.2686 185.752V186.102H73.0466C73.1586 187.124 73.9286 187.964 75.2026 187.964C75.8606 187.964 76.6446 187.698 77.1206 187.222L77.7926 188.188C77.1206 188.832 76.1266 189.168 75.0486 189.168ZM76.8406 185.066C76.8126 184.268 76.2666 183.274 74.9366 183.274C73.6766 183.274 73.1026 184.24 73.0326 185.066H76.8406ZM81.1896 189H79.7196V182.238H81.1896V183.232C81.6936 182.588 82.5056 182.084 83.3876 182.084V183.54C83.2616 183.512 83.1076 183.498 82.9256 183.498C82.3096 183.498 81.4836 183.918 81.1896 184.394V189ZM87.6951 189.168C85.6651 189.168 84.1531 187.754 84.1531 185.612C84.1531 183.652 85.5811 182.07 87.5831 182.07C89.6131 182.07 90.9151 183.624 90.9151 185.752V186.102H85.6931C85.8051 187.124 86.5751 187.964 87.8491 187.964C88.5071 187.964 89.2911 187.698 89.7671 187.222L90.4391 188.188C89.7671 188.832 88.7731 189.168 87.6951 189.168ZM89.4871 185.066C89.4591 184.268 88.9131 183.274 87.5831 183.274C86.3231 183.274 85.7491 184.24 85.6791 185.066H89.4871ZM93.7661 186.144H92.4921L92.2261 179.662H94.0181L93.7661 186.144ZM93.1221 189.14C92.5901 189.14 92.1561 188.692 92.1561 188.174C92.1561 187.642 92.5901 187.194 93.1221 187.194C93.6541 187.194 94.1021 187.642 94.1021 188.174C94.1021 188.692 93.6541 189.14 93.1221 189.14ZM107.569 189H105.931V184.926H101.073V189H99.4354V179.662H101.073V183.484H105.931V179.662H107.569V189ZM112.563 189.168C110.421 189.168 109.091 187.558 109.091 185.612C109.091 183.68 110.421 182.07 112.563 182.07C114.733 182.07 116.049 183.68 116.049 185.612C116.049 187.558 114.733 189.168 112.563 189.168ZM112.563 187.866C113.823 187.866 114.523 186.816 114.523 185.612C114.523 184.422 113.823 183.372 112.563 183.372C111.317 183.372 110.617 184.422 110.617 185.612C110.617 186.816 111.317 187.866 112.563 187.866ZM124.97 189H123.43L121.862 184.044L120.294 189H118.754L116.654 182.238H118.18L119.608 187.152L121.218 182.238H122.506L124.116 187.152L125.544 182.238H127.07L124.97 189ZM134.766 189.168C132.708 189.168 131.266 187.67 131.266 185.612C131.266 183.568 132.708 182.07 134.766 182.07C136.082 182.07 136.88 182.63 137.356 183.274L136.39 184.17C136.012 183.638 135.494 183.372 134.836 183.372C133.604 183.372 132.792 184.296 132.792 185.612C132.792 186.928 133.604 187.866 134.836 187.866C135.494 187.866 136.012 187.586 136.39 187.068L137.356 187.964C136.88 188.608 136.082 189.168 134.766 189.168ZM144.245 189H142.775V188.272C142.271 188.846 141.487 189.168 140.591 189.168C139.485 189.168 138.239 188.426 138.239 186.928C138.239 185.374 139.485 184.73 140.591 184.73C141.501 184.73 142.285 185.024 142.775 185.598V184.59C142.775 183.806 142.131 183.33 141.193 183.33C140.437 183.33 139.779 183.61 139.191 184.184L138.589 183.162C139.373 182.42 140.353 182.07 141.431 182.07C142.929 182.07 144.245 182.7 144.245 184.52V189ZM141.165 188.16C141.809 188.16 142.439 187.922 142.775 187.46V186.438C142.439 185.976 141.809 185.738 141.165 185.738C140.339 185.738 139.723 186.214 139.723 186.956C139.723 187.684 140.339 188.16 141.165 188.16ZM152.185 189H150.715V184.772C150.715 183.722 150.183 183.372 149.357 183.372C148.601 183.372 147.957 183.82 147.621 184.282V189H146.151V182.238H147.621V183.162C148.069 182.63 148.937 182.07 150.001 182.07C151.457 182.07 152.185 182.854 152.185 184.24V189ZM165.124 189H163.584L162.016 184.044L160.448 189H158.908L156.808 182.238H158.334L159.762 187.152L161.372 182.238H162.66L164.27 187.152L165.698 182.238H167.224L165.124 189ZM171.367 189.168C169.337 189.168 167.825 187.754 167.825 185.612C167.825 183.652 169.253 182.07 171.255 182.07C173.285 182.07 174.587 183.624 174.587 185.752V186.102H169.365C169.477 187.124 170.247 187.964 171.521 187.964C172.179 187.964 172.963 187.698 173.439 187.222L174.111 188.188C173.439 188.832 172.445 189.168 171.367 189.168ZM173.159 185.066C173.131 184.268 172.585 183.274 171.255 183.274C169.995 183.274 169.421 184.24 169.351 185.066H173.159ZM185.682 189H184.212V184.744C184.212 183.694 183.666 183.372 182.84 183.372C182.098 183.372 181.454 183.82 181.104 184.282V189H179.634V179.662H181.104V183.162C181.552 182.63 182.434 182.07 183.498 182.07C184.954 182.07 185.682 182.826 185.682 184.212V189ZM190.713 189.168C188.683 189.168 187.171 187.754 187.171 185.612C187.171 183.652 188.599 182.07 190.601 182.07C192.631 182.07 193.933 183.624 193.933 185.752V186.102H188.711C188.823 187.124 189.593 187.964 190.867 187.964C191.525 187.964 192.309 187.698 192.785 187.222L193.457 188.188C192.785 188.832 191.791 189.168 190.713 189.168ZM192.505 185.066C192.477 184.268 191.931 183.274 190.601 183.274C189.341 183.274 188.767 184.24 188.697 185.066H192.505ZM196.854 189H195.384V179.662H196.854V189ZM202.401 189.168C201.547 189.168 200.777 188.79 200.231 188.062V191.576H198.761V182.238H200.231V183.162C200.735 182.49 201.519 182.07 202.401 182.07C204.151 182.07 205.397 183.386 205.397 185.612C205.397 187.838 204.151 189.168 202.401 189.168ZM201.967 187.866C203.129 187.866 203.871 186.928 203.871 185.612C203.871 184.31 203.129 183.372 201.967 183.372C201.281 183.372 200.553 183.778 200.231 184.282V186.956C200.553 187.446 201.281 187.866 201.967 187.866ZM207.851 186.256C207.515 185.934 207.347 185.528 207.347 185.066C207.347 183.358 209.601 183.176 209.601 181.986C209.601 181.44 209.181 180.978 208.271 180.978C207.417 180.978 206.801 181.37 206.325 181.958L205.387 180.908C206.101 180.04 207.179 179.522 208.439 179.522C210.203 179.522 211.281 180.46 211.281 181.72C211.281 183.792 208.775 183.96 208.775 185.22C208.775 185.444 208.901 185.696 209.083 185.85L207.851 186.256ZM208.355 189.154C207.823 189.154 207.375 188.706 207.375 188.174C207.375 187.642 207.823 187.194 208.355 187.194C208.887 187.194 209.335 187.642 209.335 188.174C209.335 188.706 208.887 189.154 208.355 189.154Z" fill="white"/>
</g>
<path d="M317 221H66C61.5817 221 58 224.582 58 229V254C58 258.418 61.5817 262 66 262H317C321.418 262 325 258.418 325 254V229C325 224.582 321.418 221 317 221Z" fill="#00CA51"/>
<path d="M75.348 246.168C72.548 246.168 70.574 244.124 70.574 241.338C70.574 238.552 72.548 236.508 75.348 236.508C78.148 236.508 80.122 238.552 80.122 241.338C80.122 244.124 78.148 246.168 75.348 246.168ZM75.348 244.712C77.224 244.712 78.442 243.256 78.442 241.338C78.442 239.406 77.224 237.964 75.348 237.964C73.458 237.964 72.254 239.406 72.254 241.338C72.254 243.256 73.458 244.712 75.348 244.712ZM82.3851 238.412C81.8951 238.412 81.4751 238.006 81.4751 237.502C81.4751 236.998 81.8951 236.592 82.3851 236.592C82.8891 236.592 83.2951 236.998 83.2951 237.502C83.2951 238.006 82.8891 238.412 82.3851 238.412ZM83.1271 246H81.6571V239.238H83.1271V246ZM86.434 243.144H85.16L84.894 236.662H86.686L86.434 243.144ZM85.79 246.14C85.258 246.14 84.824 245.692 84.824 245.174C84.824 244.642 85.258 244.194 85.79 244.194C86.322 244.194 86.77 244.642 86.77 245.174C86.77 245.692 86.322 246.14 85.79 246.14ZM96.8354 246H94.7914L91.1234 236.662H92.9854L95.8134 244.222L98.6414 236.662H100.503L96.8354 246ZM103.699 246.168C101.557 246.168 100.227 244.558 100.227 242.612C100.227 240.68 101.557 239.07 103.699 239.07C105.869 239.07 107.185 240.68 107.185 242.612C107.185 244.558 105.869 246.168 103.699 246.168ZM103.699 244.866C104.959 244.866 105.659 243.816 105.659 242.612C105.659 241.422 104.959 240.372 103.699 240.372C102.453 240.372 101.753 241.422 101.753 242.612C101.753 243.816 102.453 244.866 103.699 244.866ZM111.753 246.168C109.695 246.168 108.253 244.67 108.253 242.612C108.253 240.568 109.695 239.07 111.753 239.07C113.069 239.07 113.867 239.63 114.343 240.274L113.377 241.17C112.999 240.638 112.481 240.372 111.823 240.372C110.591 240.372 109.779 241.296 109.779 242.612C109.779 243.928 110.591 244.866 111.823 244.866C112.481 244.866 112.999 244.586 113.377 244.068L114.343 244.964C113.867 245.608 113.069 246.168 111.753 246.168ZM120.658 238.216H119.72L118.642 236.872L117.592 238.216H116.668L117.97 236.2H119.314L120.658 238.216ZM118.754 246.168C116.724 246.168 115.212 244.754 115.212 242.612C115.212 240.652 116.64 239.07 118.642 239.07C120.672 239.07 121.974 240.624 121.974 242.752V243.102H116.752C116.864 244.124 117.634 244.964 118.908 244.964C119.566 244.964 120.35 244.698 120.826 244.222L121.498 245.188C120.826 245.832 119.832 246.168 118.754 246.168ZM120.546 242.066C120.518 241.268 119.972 240.274 118.642 240.274C117.382 240.274 116.808 241.24 116.738 242.066H120.546ZM128.84 246H127.37V240.526H126.25V239.238H127.37V238.86C127.37 237.39 128.224 236.522 129.512 236.522C130.114 236.522 130.716 236.676 131.136 237.11L130.562 238.02C130.366 237.838 130.114 237.726 129.778 237.726C129.204 237.726 128.84 238.104 128.84 238.86V239.238H130.212V240.526H128.84V246ZM136.927 246H135.457V245.272C134.953 245.846 134.169 246.168 133.273 246.168C132.167 246.168 130.921 245.426 130.921 243.928C130.921 242.374 132.167 241.73 133.273 241.73C134.183 241.73 134.967 242.024 135.457 242.598V241.59C135.457 240.806 134.813 240.33 133.875 240.33C133.119 240.33 132.461 240.61 131.873 241.184L131.271 240.162C132.055 239.42 133.035 239.07 134.113 239.07C135.611 239.07 136.927 239.7 136.927 241.52V246ZM133.847 245.16C134.491 245.16 135.121 244.922 135.457 244.46V243.438C135.121 242.976 134.491 242.738 133.847 242.738C133.021 242.738 132.405 243.214 132.405 243.956C132.405 244.684 133.021 245.16 133.847 245.16ZM140.303 246H138.833V236.662H140.303V246ZM147.81 246H146.34V245.272C145.836 245.846 145.052 246.168 144.156 246.168C143.05 246.168 141.804 245.426 141.804 243.928C141.804 242.374 143.05 241.73 144.156 241.73C145.066 241.73 145.85 242.024 146.34 242.598V241.59C146.34 240.806 145.696 240.33 144.758 240.33C144.002 240.33 143.344 240.61 142.756 241.184L142.154 240.162C142.938 239.42 143.918 239.07 144.996 239.07C146.494 239.07 147.81 239.7 147.81 241.52V246ZM144.73 245.16C145.374 245.16 146.004 244.922 146.34 244.46V243.438C146.004 242.976 145.374 242.738 144.73 242.738C143.904 242.738 143.288 243.214 143.288 243.956C143.288 244.684 143.904 245.16 144.73 245.16ZM156.951 246.168C156.097 246.168 155.327 245.79 154.781 245.062V248.576H153.311V239.238H154.781V240.162C155.285 239.49 156.069 239.07 156.951 239.07C158.701 239.07 159.947 240.386 159.947 242.612C159.947 244.838 158.701 246.168 156.951 246.168ZM156.517 244.866C157.679 244.866 158.421 243.928 158.421 242.612C158.421 241.31 157.679 240.372 156.517 240.372C155.831 240.372 155.103 240.778 154.781 241.282V243.956C155.103 244.446 155.831 244.866 156.517 244.866ZM164.457 246.168C162.315 246.168 160.985 244.558 160.985 242.612C160.985 240.68 162.315 239.07 164.457 239.07C166.627 239.07 167.943 240.68 167.943 242.612C167.943 244.558 166.627 246.168 164.457 246.168ZM164.457 244.866C165.717 244.866 166.417 243.816 166.417 242.612C166.417 241.422 165.717 240.372 164.457 240.372C163.211 240.372 162.511 241.422 162.511 242.612C162.511 243.816 163.211 244.866 164.457 244.866ZM170.901 246H169.431V239.238H170.901V240.232C171.405 239.588 172.217 239.084 173.099 239.084V240.54C172.973 240.512 172.819 240.498 172.637 240.498C172.021 240.498 171.195 240.918 170.901 241.394V246ZM176.314 246.168C175.18 246.168 174.578 245.552 174.578 244.432V240.526H173.458V239.238H174.578V237.39H176.048V239.238H177.42V240.526H176.048V244.068C176.048 244.53 176.272 244.866 176.692 244.866C176.972 244.866 177.238 244.754 177.35 244.628L177.7 245.734C177.434 245.986 177 246.168 176.314 246.168ZM184.789 246H183.319V245.104C182.829 245.65 181.989 246.168 180.925 246.168C179.469 246.168 178.755 245.412 178.755 244.026V239.238H180.225V243.494C180.225 244.544 180.757 244.866 181.583 244.866C182.325 244.866 182.969 244.446 183.319 243.984V239.238H184.789V246ZM189.442 248.744C188.294 248.744 187.44 248.492 186.614 247.736L187.3 246.672C187.846 247.302 188.546 247.54 189.442 247.54C190.408 247.54 191.444 247.092 191.444 245.706V244.894C190.926 245.566 190.156 246.014 189.274 246.014C187.552 246.014 186.278 244.768 186.278 242.542C186.278 240.358 187.538 239.07 189.274 239.07C190.128 239.07 190.898 239.462 191.444 240.176V239.238H192.914V245.65C192.914 248.086 191.108 248.744 189.442 248.744ZM189.708 244.712C190.394 244.712 191.122 244.306 191.444 243.802V241.282C191.122 240.778 190.394 240.372 189.708 240.372C188.546 240.372 187.804 241.24 187.804 242.542C187.804 243.844 188.546 244.712 189.708 244.712ZM200.853 246H199.383V245.104C198.893 245.65 198.053 246.168 196.989 246.168C195.533 246.168 194.819 245.412 194.819 244.026V239.238H196.289V243.494C196.289 244.544 196.821 244.866 197.647 244.866C198.389 244.866 199.033 244.446 199.383 243.984V239.238H200.853V246ZM207.789 238.216H206.851L205.773 236.872L204.723 238.216H203.799L205.101 236.2H206.445L207.789 238.216ZM205.885 246.168C203.855 246.168 202.343 244.754 202.343 242.612C202.343 240.652 203.771 239.07 205.773 239.07C207.803 239.07 209.105 240.624 209.105 242.752V243.102H203.883C203.995 244.124 204.765 244.964 206.039 244.964C206.697 244.964 207.481 244.698 207.957 244.222L208.629 245.188C207.957 245.832 206.963 246.168 205.885 246.168ZM207.677 242.066C207.649 241.268 207.103 240.274 205.773 240.274C204.513 240.274 203.939 241.24 203.869 242.066H207.677ZM212.866 246.168C211.718 246.168 210.668 245.804 209.968 245.118L210.64 244.054C211.116 244.544 212.054 245.006 212.936 245.006C213.818 245.006 214.266 244.628 214.266 244.096C214.266 242.766 210.178 243.718 210.178 241.128C210.178 240.022 211.13 239.07 212.838 239.07C213.986 239.07 214.854 239.476 215.47 240.022L214.854 241.058C214.448 240.596 213.692 240.246 212.852 240.246C212.082 240.246 211.592 240.596 211.592 241.072C211.592 242.276 215.68 241.38 215.68 244.068C215.68 245.258 214.686 246.168 212.866 246.168ZM218.224 243.256C217.888 242.934 217.72 242.528 217.72 242.066C217.72 240.358 219.974 240.176 219.974 238.986C219.974 238.44 219.554 237.978 218.644 237.978C217.79 237.978 217.174 238.37 216.698 238.958L215.76 237.908C216.474 237.04 217.552 236.522 218.812 236.522C220.576 236.522 221.654 237.46 221.654 238.72C221.654 240.792 219.148 240.96 219.148 242.22C219.148 242.444 219.274 242.696 219.456 242.85L218.224 243.256ZM218.728 246.154C218.196 246.154 217.748 245.706 217.748 245.174C217.748 244.642 218.196 244.194 218.728 244.194C219.26 244.194 219.708 244.642 219.708 245.174C219.708 245.706 219.26 246.154 218.728 246.154Z" fill="#071824"/>
<mask id="mask3_0_27" style="mask-type:luminance" maskUnits="userSpaceOnUse" x="18" y="278" width="267" height="63">
<path d="M277 278H26C21.5817 278 18 281.582 18 286V333C18 337.418 21.5817 341 26 341H277C281.418 341 285 337.418 285 333V286C285 281.582 281.418 278 277 278Z" fill="white"/>
</mask>
<g mask="url(#mask3_0_27)">
<path d="M277 278H26C21.5817 278 18 281.582 18 286V333C18 337.418 21.5817 341 26 341H277C281.418 341 285 337.418 285 333V286C285 281.582 281.418 278 277 278Z" fill="#272D39"/>
<path d="M33.636 301.144C32.1 301.144 30.996 300.628 30.252 299.872L31.176 298.576C31.74 299.164 32.616 299.656 33.72 299.656C34.656 299.656 35.112 299.224 35.112 298.768C35.112 297.352 30.504 298.324 30.504 295.312C30.504 293.98 31.656 292.876 33.54 292.876C34.812 292.876 35.868 293.26 36.66 293.992L35.712 295.24C35.064 294.64 34.2 294.364 33.384 294.364C32.652 294.364 32.244 294.688 32.244 295.168C32.244 296.44 36.84 295.588 36.84 298.576C36.84 300.04 35.796 301.144 33.636 301.144ZM43.3873 301H41.8633V300.268C41.4673 300.712 40.7713 301.144 39.8233 301.144C38.5513 301.144 37.9513 300.448 37.9513 299.32V295.204H39.4753V298.72C39.4753 299.524 39.8953 299.788 40.5433 299.788C41.1313 299.788 41.5993 299.464 41.8633 299.128V295.204H43.3873V301ZM48.2125 301.144C47.5285 301.144 46.8925 300.856 46.4245 300.256V303.208H44.9005V295.204H46.4245V295.936C46.8685 295.372 47.5045 295.06 48.2125 295.06C49.7005 295.06 50.7805 296.164 50.7805 298.096C50.7805 300.028 49.7005 301.144 48.2125 301.144ZM47.7325 299.788C48.6085 299.788 49.1965 299.104 49.1965 298.096C49.1965 297.1 48.6085 296.416 47.7325 296.416C47.2405 296.416 46.6765 296.704 46.4245 297.076V299.128C46.6765 299.488 47.2405 299.788 47.7325 299.788ZM54.5846 301.144C52.6766 301.144 51.5246 299.752 51.5246 298.096C51.5246 296.452 52.6766 295.06 54.5846 295.06C56.5046 295.06 57.6566 296.452 57.6566 298.096C57.6566 299.752 56.5046 301.144 54.5846 301.144ZM54.5846 299.788C55.5326 299.788 56.0726 299.008 56.0726 298.096C56.0726 297.196 55.5326 296.416 54.5846 296.416C53.6366 296.416 53.1086 297.196 53.1086 298.096C53.1086 299.008 53.6366 299.788 54.5846 299.788ZM60.3113 301H58.7873V295.204H60.3113V295.996C60.7193 295.48 61.4393 295.06 62.1593 295.06V296.548C62.0513 296.524 61.9073 296.512 61.7393 296.512C61.2353 296.512 60.5633 296.8 60.3113 297.172V301ZM65.0555 301.144C63.9875 301.144 63.4115 300.592 63.4115 299.56V296.536H62.4515V295.204H63.4115V293.62H64.9475V295.204H66.1235V296.536H64.9475V299.152C64.9475 299.512 65.1395 299.788 65.4755 299.788C65.7035 299.788 65.9195 299.704 66.0035 299.62L66.3275 300.772C66.0995 300.976 65.6915 301.144 65.0555 301.144ZM69.8902 301.144C68.1262 301.144 66.7942 299.956 66.7942 298.096C66.7942 296.416 68.0302 295.06 69.7942 295.06C71.5222 295.06 72.6982 296.356 72.6982 298.252V298.588H68.3902C68.4862 299.32 69.0742 299.932 70.0582 299.932C70.5502 299.932 71.2342 299.716 71.6062 299.356L72.2782 300.34C71.7022 300.868 70.7902 301.144 69.8902 301.144ZM71.2222 297.556C71.1862 297.004 70.8022 296.272 69.7942 296.272C68.8462 296.272 68.4382 296.98 68.3662 297.556H71.2222ZM80.1813 301.144C79.4973 301.144 78.8613 300.856 78.3933 300.256V303.208H76.8693V295.204H78.3933V295.936C78.8373 295.372 79.4733 295.06 80.1813 295.06C81.6693 295.06 82.7493 296.164 82.7493 298.096C82.7493 300.028 81.6693 301.144 80.1813 301.144ZM79.7013 299.788C80.5773 299.788 81.1653 299.104 81.1653 298.096C81.1653 297.1 80.5773 296.416 79.7013 296.416C79.2093 296.416 78.6453 296.704 78.3933 297.076V299.128C78.6453 299.488 79.2093 299.788 79.7013 299.788ZM86.5534 301.144C84.6454 301.144 83.4934 299.752 83.4934 298.096C83.4934 296.452 84.6454 295.06 86.5534 295.06C88.4734 295.06 89.6254 296.452 89.6254 298.096C89.6254 299.752 88.4734 301.144 86.5534 301.144ZM86.5534 299.788C87.5014 299.788 88.0414 299.008 88.0414 298.096C88.0414 297.196 87.5014 296.416 86.5534 296.416C85.6054 296.416 85.0774 297.196 85.0774 298.096C85.0774 299.008 85.6054 299.788 86.5534 299.788ZM92.28 301H90.756V295.204H92.28V295.996C92.688 295.48 93.408 295.06 94.128 295.06V296.548C94.02 296.524 93.876 296.512 93.708 296.512C93.204 296.512 92.532 296.8 92.28 297.172V301ZM97.0242 301.144C95.9562 301.144 95.3802 300.592 95.3802 299.56V296.536H94.4202V295.204H95.3802V293.62H96.9162V295.204H98.0922V296.536H96.9162V299.152C96.9162 299.512 97.1082 299.788 97.4442 299.788C97.6722 299.788 97.8882 299.704 97.9722 299.62L98.2962 300.772C98.0682 300.976 97.6602 301.144 97.0242 301.144ZM104.571 301H103.047V300.268C102.651 300.712 101.955 301.144 101.007 301.144C99.7349 301.144 99.1349 300.448 99.1349 299.32V295.204H100.659V298.72C100.659 299.524 101.079 299.788 101.727 299.788C102.315 299.788 102.783 299.464 103.047 299.128V295.204H104.571V301ZM108.46 303.352C107.464 303.352 106.696 303.124 105.964 302.488L106.648 301.384C107.116 301.9 107.728 302.104 108.46 302.104C109.192 302.104 110.056 301.78 110.056 300.64V300.052C109.6 300.628 108.976 300.964 108.268 300.964C106.816 300.964 105.712 299.944 105.712 298.012C105.712 296.116 106.804 295.06 108.268 295.06C108.964 295.06 109.588 295.36 110.056 295.948V295.204H111.592V300.604C111.592 302.812 109.888 303.352 108.46 303.352ZM108.748 299.608C109.252 299.608 109.804 299.32 110.056 298.948V297.076C109.804 296.692 109.252 296.416 108.748 296.416C107.884 296.416 107.284 297.016 107.284 298.012C107.284 299.008 107.884 299.608 108.748 299.608ZM118.54 301H117.016V300.268C116.62 300.712 115.924 301.144 114.976 301.144C113.704 301.144 113.104 300.448 113.104 299.32V295.204H114.628V298.72C114.628 299.524 115.048 299.788 115.696 299.788C116.284 299.788 116.752 299.464 117.016 299.128V295.204H118.54V301ZM124.493 294.328H123.557L122.681 293.26L121.829 294.328H120.893L121.997 292.6H123.365L124.493 294.328ZM122.777 301.144C121.013 301.144 119.681 299.956 119.681 298.096C119.681 296.416 120.917 295.06 122.681 295.06C124.409 295.06 125.585 296.356 125.585 298.252V298.588H121.277C121.373 299.32 121.961 299.932 122.945 299.932C123.437 299.932 124.121 299.716 124.493 299.356L125.165 300.34C124.589 300.868 123.677 301.144 122.777 301.144ZM124.109 297.556C124.073 297.004 123.689 296.272 122.681 296.272C121.733 296.272 121.325 296.98 121.253 297.556H124.109ZM128.774 301.144C127.766 301.144 126.794 300.808 126.182 300.244L126.842 299.176C127.262 299.572 128.126 299.968 128.846 299.968C129.506 299.968 129.818 299.704 129.818 299.344C129.818 298.384 126.374 299.164 126.374 296.884C126.374 295.912 127.226 295.06 128.75 295.06C129.734 295.06 130.514 295.396 131.09 295.852L130.478 296.896C130.13 296.524 129.47 296.224 128.762 296.224C128.21 296.224 127.85 296.476 127.85 296.8C127.85 297.664 131.282 296.944 131.282 299.284C131.282 300.34 130.382 301.144 128.774 301.144Z" fill="white"/>
<path d="M37.392 325H30.994V315.662H37.392V317.104H32.632V319.526H37.294V320.968H32.632V323.558H37.392V325ZM39.7601 317.412C39.2701 317.412 38.8501 317.006 38.8501 316.502C38.8501 315.998 39.2701 315.592 39.7601 315.592C40.2641 315.592 40.6701 315.998 40.6701 316.502C40.6701 317.006 40.2641 317.412 39.7601 317.412ZM40.5021 325H39.0321V318.238H40.5021V325ZM43.809 322.144H42.535L42.269 315.662H44.061L43.809 322.144ZM43.165 325.14C42.633 325.14 42.199 324.692 42.199 324.174C42.199 323.642 42.633 323.194 43.165 323.194C43.697 323.194 44.145 323.642 44.145 324.174C44.145 324.692 43.697 325.14 43.165 325.14ZM53.9584 325.168C51.2004 325.168 49.0584 323.208 49.0584 320.338C49.0584 317.468 51.2004 315.508 53.9584 315.508C55.8484 315.508 57.0104 316.488 57.7104 317.608L56.3104 318.322C55.8624 317.552 54.9664 316.964 53.9584 316.964C52.1104 316.964 50.7384 318.378 50.7384 320.338C50.7384 322.298 52.1104 323.712 53.9584 323.712C54.9664 323.712 55.8624 323.138 56.3104 322.354L57.7104 323.068C56.9964 324.188 55.8484 325.168 53.9584 325.168ZM62.0313 325.168C59.8893 325.168 58.5593 323.558 58.5593 321.612C58.5593 319.68 59.8893 318.07 62.0313 318.07C64.2013 318.07 65.5173 319.68 65.5173 321.612C65.5173 323.558 64.2013 325.168 62.0313 325.168ZM62.0313 323.866C63.2913 323.866 63.9913 322.816 63.9913 321.612C63.9913 320.422 63.2913 319.372 62.0313 319.372C60.7853 319.372 60.0853 320.422 60.0853 321.612C60.0853 322.816 60.7853 323.866 62.0313 323.866ZM76.7627 325H75.2927V320.59C75.2927 319.862 74.9707 319.372 74.1867 319.372C73.5287 319.372 72.9127 319.834 72.6187 320.268V325H71.1487V320.59C71.1487 319.862 70.8267 319.372 70.0287 319.372C69.3847 319.372 68.7827 319.834 68.4747 320.282V325H67.0047V318.238H68.4747V319.162C68.7547 318.742 69.6507 318.07 70.6727 318.07C71.6807 318.07 72.2967 318.574 72.5207 319.316C72.9127 318.7 73.8087 318.07 74.8167 318.07C76.0627 318.07 76.7627 318.742 76.7627 320.114V325ZM81.7188 325.168C79.5768 325.168 78.2468 323.558 78.2468 321.612C78.2468 319.68 79.5768 318.07 81.7188 318.07C83.8888 318.07 85.2048 319.68 85.2048 321.612C85.2048 323.558 83.8888 325.168 81.7188 325.168ZM81.7188 323.866C82.9788 323.866 83.6788 322.816 83.6788 321.612C83.6788 320.422 82.9788 319.372 81.7188 319.372C80.4728 319.372 79.7728 320.422 79.7728 321.612C79.7728 322.816 80.4728 323.866 81.7188 323.866ZM93.9279 325.168C93.0739 325.168 92.3039 324.79 91.7579 324.062V327.576H90.2879V318.238H91.7579V319.162C92.2619 318.49 93.0459 318.07 93.9279 318.07C95.6779 318.07 96.9239 319.386 96.9239 321.612C96.9239 323.838 95.6779 325.168 93.9279 325.168ZM93.4939 323.866C94.6559 323.866 95.3979 322.928 95.3979 321.612C95.3979 320.31 94.6559 319.372 93.4939 319.372C92.8079 319.372 92.0799 319.778 91.7579 320.282V322.956C92.0799 323.446 92.8079 323.866 93.4939 323.866ZM101.434 325.168C99.2917 325.168 97.9617 323.558 97.9617 321.612C97.9617 319.68 99.2917 318.07 101.434 318.07C103.604 318.07 104.92 319.68 104.92 321.612C104.92 323.558 103.604 325.168 101.434 325.168ZM101.434 323.866C102.694 323.866 103.394 322.816 103.394 321.612C103.394 320.422 102.694 319.372 101.434 319.372C100.188 319.372 99.4877 320.422 99.4877 321.612C99.4877 322.816 100.188 323.866 101.434 323.866ZM112.637 325H111.167V324.076C110.649 324.748 109.865 325.168 108.997 325.168C107.261 325.168 105.987 323.852 105.987 321.626C105.987 319.442 107.247 318.07 108.997 318.07C109.837 318.07 110.621 318.462 111.167 319.176V315.662H112.637V325ZM109.417 323.866C110.117 323.866 110.831 323.474 111.167 322.97V320.282C110.831 319.778 110.117 319.372 109.417 319.372C108.255 319.372 107.513 320.31 107.513 321.626C107.513 322.928 108.255 323.866 109.417 323.866ZM117.664 325.168C115.634 325.168 114.122 323.754 114.122 321.612C114.122 319.652 115.55 318.07 117.552 318.07C119.582 318.07 120.884 319.624 120.884 321.752V322.102H115.662C115.774 323.124 116.544 323.964 117.818 323.964C118.476 323.964 119.26 323.698 119.736 323.222L120.408 324.188C119.736 324.832 118.742 325.168 117.664 325.168ZM119.456 321.066C119.428 320.268 118.882 319.274 117.552 319.274C116.292 319.274 115.718 320.24 115.648 321.066H119.456ZM132.093 325H130.623V320.59C130.623 319.862 130.301 319.372 129.517 319.372C128.859 319.372 128.243 319.834 127.949 320.268V325H126.479V320.59C126.479 319.862 126.157 319.372 125.359 319.372C124.715 319.372 124.113 319.834 123.805 320.282V325H122.335V318.238H123.805V319.162C124.085 318.742 124.981 318.07 126.003 318.07C127.011 318.07 127.627 318.574 127.851 319.316C128.243 318.7 129.139 318.07 130.147 318.07C131.393 318.07 132.093 318.742 132.093 320.114V325ZM137.049 325.168C134.907 325.168 133.577 323.558 133.577 321.612C133.577 319.68 134.907 318.07 137.049 318.07C139.219 318.07 140.535 319.68 140.535 321.612C140.535 323.558 139.219 325.168 137.049 325.168ZM137.049 323.866C138.309 323.866 139.009 322.816 139.009 321.612C139.009 320.422 138.309 319.372 137.049 319.372C135.803 319.372 135.103 320.422 135.103 321.612C135.103 322.816 135.803 323.866 137.049 323.866ZM144.332 325.168C143.184 325.168 142.134 324.804 141.434 324.118L142.106 323.054C142.582 323.544 143.52 324.006 144.402 324.006C145.284 324.006 145.732 323.628 145.732 323.096C145.732 321.766 141.644 322.718 141.644 320.128C141.644 319.022 142.596 318.07 144.304 318.07C145.452 318.07 146.32 318.476 146.936 319.022L146.32 320.058C145.914 319.596 145.158 319.246 144.318 319.246C143.548 319.246 143.058 319.596 143.058 320.072C143.058 321.276 147.146 320.38 147.146 323.068C147.146 324.258 146.152 325.168 144.332 325.168ZM157.822 325H156.352V324.272C155.848 324.846 155.064 325.168 154.168 325.168C153.062 325.168 151.816 324.426 151.816 322.928C151.816 321.374 153.062 320.73 154.168 320.73C155.078 320.73 155.862 321.024 156.352 321.598V320.59C156.352 319.806 155.708 319.33 154.77 319.33C154.014 319.33 153.356 319.61 152.768 320.184L152.166 319.162C152.95 318.42 153.93 318.07 155.008 318.07C156.506 318.07 157.822 318.7 157.822 320.52V325ZM154.742 324.16C155.386 324.16 156.016 323.922 156.352 323.46V322.438C156.016 321.976 155.386 321.738 154.742 321.738C153.916 321.738 153.3 322.214 153.3 322.956C153.3 323.684 153.916 324.16 154.742 324.16ZM160.455 317.412C159.965 317.412 159.545 317.006 159.545 316.502C159.545 315.998 159.965 315.592 160.455 315.592C160.959 315.592 161.365 315.998 161.365 316.502C161.365 317.006 160.959 317.412 160.455 317.412ZM158.957 327.744C158.173 327.744 157.823 327.59 157.361 327.254L157.795 326.162C158.047 326.386 158.313 326.54 158.733 326.54C159.307 326.54 159.727 326.19 159.727 325.392V318.238H161.197V325.392C161.197 326.834 160.441 327.744 158.957 327.744ZM169.138 325H167.668V324.104C167.178 324.65 166.338 325.168 165.274 325.168C163.818 325.168 163.104 324.412 163.104 323.026V318.238H164.574V322.494C164.574 323.544 165.106 323.866 165.932 323.866C166.674 323.866 167.318 323.446 167.668 322.984V318.238H169.138V325ZM177.278 325H175.808V324.076C175.29 324.748 174.506 325.168 173.638 325.168C171.902 325.168 170.628 323.852 170.628 321.626C170.628 319.442 171.888 318.07 173.638 318.07C174.478 318.07 175.262 318.462 175.808 319.176V315.662H177.278V325ZM174.058 323.866C174.758 323.866 175.472 323.474 175.808 322.97V320.282C175.472 319.778 174.758 319.372 174.058 319.372C172.896 319.372 172.154 320.31 172.154 321.626C172.154 322.928 172.896 323.866 174.058 323.866ZM184.782 325H183.312V324.272C182.808 324.846 182.024 325.168 181.128 325.168C180.022 325.168 178.776 324.426 178.776 322.928C178.776 321.374 180.022 320.73 181.128 320.73C182.038 320.73 182.822 321.024 183.312 321.598V320.59C183.312 319.806 182.668 319.33 181.73 319.33C180.974 319.33 180.316 319.61 179.728 320.184L179.126 319.162C179.91 318.42 180.89 318.07 181.968 318.07C183.466 318.07 184.782 318.7 184.782 320.52V325ZM181.702 324.16C182.346 324.16 182.976 323.922 183.312 323.46V322.438C182.976 321.976 182.346 321.738 181.702 321.738C180.876 321.738 180.26 322.214 180.26 322.956C180.26 323.684 180.876 324.16 181.702 324.16ZM188.158 325H186.688V318.238H188.158V319.232C188.662 318.588 189.474 318.084 190.356 318.084V319.54C190.23 319.512 190.076 319.498 189.894 319.498C189.278 319.498 188.452 319.918 188.158 320.394V325ZM193.236 322.256C192.9 321.934 192.732 321.528 192.732 321.066C192.732 319.358 194.986 319.176 194.986 317.986C194.986 317.44 194.566 316.978 193.656 316.978C192.802 316.978 192.186 317.37 191.71 317.958L190.772 316.908C191.486 316.04 192.564 315.522 193.824 315.522C195.588 315.522 196.666 316.46 196.666 317.72C196.666 319.792 194.16 319.96 194.16 321.22C194.16 321.444 194.286 321.696 194.468 321.85L193.236 322.256ZM193.74 325.154C193.208 325.154 192.76 324.706 192.76 324.174C192.76 323.642 193.208 323.194 193.74 323.194C194.272 323.194 194.72 323.642 194.72 324.174C194.72 324.706 194.272 325.154 193.74 325.154Z" fill="white"/>
</g>
<path d="M317 357H66C61.5817 357 58 360.582 58 365V407C58 411.418 61.5817 415 66 415H317C321.418 415 325 411.418 325 407V365C325 360.582 321.418 357 317 357Z" fill="#E9113C"/>
<path d="M343 467H0V535H343V467Z" fill="#1C2028"/>
<path d="M31.2959 506H29.2959L27.2159 498.128L25.1519 506H23.1519L20.0959 495.328H22.1919L24.2719 503.552L26.4799 495.328H27.9679L30.1759 503.552L32.2399 495.328H34.3359L31.2959 506ZM36.7367 506H35.0567V498.272H36.7367V499.408C37.3127 498.672 38.2407 498.096 39.2487 498.096V499.76C39.1047 499.728 38.9287 499.712 38.7207 499.712C38.0167 499.712 37.0727 500.192 36.7367 500.736V506ZM41.4355 497.328C40.8755 497.328 40.3955 496.864 40.3955 496.288C40.3955 495.712 40.8755 495.248 41.4355 495.248C42.0115 495.248 42.4755 495.712 42.4755 496.288C42.4755 496.864 42.0115 497.328 41.4355 497.328ZM42.2835 506H40.6035V498.272H42.2835V506ZM46.7829 506.192C45.4869 506.192 44.7989 505.488 44.7989 504.208V499.744H43.5189V498.272H44.7989V496.16H46.4789V498.272H48.0469V499.744H46.4789V503.792C46.4789 504.32 46.7349 504.704 47.2149 504.704C47.5349 504.704 47.8389 504.576 47.9669 504.432L48.3669 505.696C48.0629 505.984 47.5669 506.192 46.7829 506.192ZM53.1403 506.192C50.8203 506.192 49.0923 504.576 49.0923 502.128C49.0923 499.888 50.7243 498.08 53.0123 498.08C55.3323 498.08 56.8203 499.856 56.8203 502.288V502.688H50.8523C50.9803 503.856 51.8603 504.816 53.3163 504.816C54.0683 504.816 54.9643 504.512 55.5083 503.968L56.2763 505.072C55.5083 505.808 54.3723 506.192 53.1403 506.192ZM55.1883 501.504C55.1563 500.592 54.5323 499.456 53.0123 499.456C51.5723 499.456 50.9163 500.56 50.8363 501.504H55.1883ZM68.9879 506H67.3079V505.168C66.7319 505.824 65.8359 506.192 64.8119 506.192C63.5479 506.192 62.1239 505.344 62.1239 503.632C62.1239 501.856 63.5479 501.12 64.8119 501.12C65.8519 501.12 66.7479 501.456 67.3079 502.112V500.96C67.3079 500.064 66.5719 499.52 65.4999 499.52C64.6359 499.52 63.8839 499.84 63.2119 500.496L62.5239 499.328C63.4199 498.48 64.5399 498.08 65.7719 498.08C67.4839 498.08 68.9879 498.8 68.9879 500.88V506ZM65.4679 505.04C66.2039 505.04 66.9239 504.768 67.3079 504.24V503.072C66.9239 502.544 66.2039 502.272 65.4679 502.272C64.5239 502.272 63.8199 502.816 63.8199 503.664C63.8199 504.496 64.5239 505.04 65.4679 505.04ZM76.9554 506H75.2754V498.272H76.9554V499.408C77.5314 498.672 78.4594 498.096 79.4674 498.096V499.76C79.3234 499.728 79.1474 499.712 78.9394 499.712C78.2354 499.712 77.2914 500.192 76.9554 500.736V506ZM84.3904 506.192C82.0704 506.192 80.3423 504.576 80.3423 502.128C80.3423 499.888 81.9743 498.08 84.2623 498.08C86.5823 498.08 88.0703 499.856 88.0703 502.288V502.688H82.1023C82.2303 503.856 83.1103 504.816 84.5663 504.816C85.3183 504.816 86.2143 504.512 86.7583 503.968L87.5263 505.072C86.7583 505.808 85.6224 506.192 84.3904 506.192ZM86.4383 501.504C86.4063 500.592 85.7823 499.456 84.2623 499.456C82.8223 499.456 82.1663 500.56 82.0863 501.504H86.4383ZM93.8885 506.192C92.9125 506.192 92.0325 505.76 91.4085 504.928V508.944H89.7285V498.272H91.4085V499.328C91.9845 498.56 92.8805 498.08 93.8885 498.08C95.8885 498.08 97.3125 499.584 97.3125 502.128C97.3125 504.672 95.8885 506.192 93.8885 506.192ZM93.3925 504.704C94.7205 504.704 95.5686 503.632 95.5686 502.128C95.5686 500.64 94.7205 499.568 93.3925 499.568C92.6085 499.568 91.7765 500.032 91.4085 500.608V503.664C91.7765 504.224 92.6085 504.704 93.3925 504.704ZM100.659 506H98.9785V495.328H100.659V506ZM102.502 509.024L102.758 507.52C102.934 507.6 103.206 507.648 103.398 507.648C103.926 507.648 104.278 507.488 104.502 506.976L104.886 506.096L101.718 498.272H103.51L105.766 504.064L108.022 498.272H109.83L106.102 507.392C105.574 508.704 104.646 509.12 103.446 509.136C103.206 509.136 102.742 509.088 102.502 509.024ZM110.874 506.176C110.266 506.176 109.754 505.664 109.754 505.056C109.754 504.448 110.266 503.936 110.874 503.936C111.482 503.936 111.994 504.448 111.994 505.056C111.994 505.664 111.482 506.176 110.874 506.176ZM114.796 506.176C114.188 506.176 113.676 505.664 113.676 505.056C113.676 504.448 114.188 503.936 114.796 503.936C115.404 503.936 115.916 504.448 115.916 505.056C115.916 505.664 115.404 506.176 114.796 506.176ZM118.718 506.176C118.11 506.176 117.598 505.664 117.598 505.056C117.598 504.448 118.11 503.936 118.718 503.936C119.326 503.936 119.838 504.448 119.838 505.056C119.838 505.664 119.326 506.176 118.718 506.176Z" fill="white" fill-opacity="0.4"/>
<path d="M327 501C327 488.85 317.15 479 305 479C292.85 479 283 488.85 283 501C283 513.15 292.85 523 305 523C317.15 523 327 513.15 327 501Z" fill="white"/>
<mask id="mask4_0_27" style="mask-type:luminance" maskUnits="userSpaceOnUse" x="295" y="491" width="20" height="20">
<path d="M315 491H295V511H315V491Z" fill="white"/>
</mask>
<g mask="url(#mask4_0_27)">
<path d="M298 511L315.195 501.001L298 491L300.682 500.025L311.78 501.001L300.682 501.975L298 511Z" fill="#20242D"/>
</g>
<mask id="mask5_0_27" style="mask-type:luminance" maskUnits="userSpaceOnUse" x="0" y="0" width="343" height="120">
<path d="M343 0H0V120H343V0Z" fill="white"/>
</mask>
<g mask="url(#mask5_0_27)">
<g filter="url(#filter0_d_0_27)">
<mask id="mask6_0_27" style="mask-type:luminance" maskUnits="userSpaceOnUse" x="0" y="0" width="436" height="120">
<path d="M436 0H0V120H436V0Z" fill="white"/>
</mask>
<g mask="url(#mask6_0_27)">
<path d="M436 0H0V120H436V0Z" fill="#0079FF"/>
<path fill-rule="evenodd" clip-rule="evenodd" d="M69.2447 -382.97C128.534 -481.644 234.832 -504.22 370.875 -445.181C468.571 -402.448 453.474 -340.447 441.705 -320.86C418.833 -282.795 331.593 -270.084 331.593 -270.084C331.593 -270.084 321.175 -245.006 375.224 -221.598C429.274 -198.19 500.337 -205.375 545.648 -281.695C598.164 -369.098 513.948 -456.572 408.015 -502.44C319.201 -541.288 77.8346 -633.095 -42.0761 -433.529C-101.353 -334.875 -9.36468 -233.22 72.4595 -142.796C137.92 -70.4563 196.875 -5.30505 166.67 45.3694C92.6143 168.62 -88.9691 131.197 -144.102 107.316C-199.234 83.4337 -201.45 40.2286 -190.347 21.7502C-130.391 -78.0331 2.48203 -55.1492 2.48203 -55.1492C5.58737 -60.8411 7.33456 -67.0034 7.62189 -73.2772C7.90922 -79.5511 6.73093 -85.8112 4.15564 -91.6934C1.58034 -97.5755 -2.34055 -102.962 -7.37881 -107.54C-12.4171 -112.117 -18.4721 -115.794 -25.1914 -118.357C-140.866 -168.954 -238.518 -103.86 -288.048 -20.518C-330.572 50.2542 -298.187 120.19 -209.478 158.758C-40.2984 232.758 193.29 245.091 286.681 88.2952C333.112 10.294 249.481 -85.9691 171.202 -176.072C102.325 -255.352 37.5916 -329.864 69.2447 -382.97ZM1447.35 715.22C1447.71 711.88 1443.59 711.008 1436.28 712.245C1403.47 720.274 1369.11 722.599 1335.23 719.083C1301.34 715.567 1268.63 706.28 1239.04 691.775C1051.66 609.816 1177.16 332.656 1177.16 332.656C1177.16 332.656 1374.87 304.093 1418.51 276.981C1462.16 249.869 1397.74 210.489 1397.74 210.489C1397.74 210.489 1235.48 270.658 1146.32 270.164C1160.63 252.933 1188.42 229.214 1218.86 203.228C1262.22 166.217 1310.97 124.607 1333.82 90.5936C1372.71 32.6993 1277.83 10.3304 1259.43 9.98517C1252.09 22.2001 1199.83 73.449 1135.62 136.418V136.421C1063.84 206.813 977.119 291.851 921.523 353.38C891.842 368.633 853.014 384.084 832.002 374.894C819.871 369.588 826.425 349.12 843.413 320.848C854.919 301.698 876.132 279.412 897.216 257.263C918.041 235.385 938.74 213.641 949.83 195.184C965.263 169.499 952.398 161.772 940.373 156.745L921.311 148.407C905.662 141.563 904.143 133.548 902.669 125.766C901.266 118.358 899.903 111.161 886.433 105.383C802.385 68.6203 647.971 100.252 573.119 217.088C535.082 220.751 482.895 224.293 462.533 215.386C442.17 206.48 444.92 185.514 453.691 170.916C469.013 145.416 608.362 15.0227 608.362 15.0227C608.362 15.0227 677.988 28.4426 708.063 35.2973C730.535 40.693 736.944 41.863 749.955 37.0534C762.966 32.2439 788.783 21.6016 810.457 11.4805C832.13 1.3594 827.111 -16.2371 805.338 -25.5273C765.913 -38.7633 725.442 -49.6039 684.225 -57.9681C684.225 -57.9681 807.847 -184.04 809.296 -186.906C810.745 -189.773 807.412 -193.331 801.13 -196.079C780.18 -203.032 758.224 -207.534 735.859 -209.461C721.227 -209.937 706.631 -207.929 692.919 -203.552C679.206 -199.174 666.65 -192.516 655.98 -183.963C644.098 -173.293 556.004 -87.6843 556.004 -87.6843C556.004 -87.6843 372.175 -109.988 346.51 -112.347C345.768 -112.432 345.013 -112.321 344.347 -112.027C343.682 -111.734 343.138 -111.273 342.79 -110.707C342.124 -109.599 325.018 -43.3427 361.521 -27.6093C387.949 -16.0498 480.948 -9.20697 480.948 -9.20697C480.948 -9.20697 361.25 107.147 334.708 151.775C317.499 180.416 313.105 220.964 379.068 249.583C432.924 270.288 492.921 276.416 550.978 267.14C549.301 283.704 553.626 300.309 563.367 314.711C573.108 329.113 587.797 340.617 605.447 347.669C649.437 363.398 698.76 364.39 743.564 350.445C740.533 364.725 742.658 379.455 749.657 392.683C756.656 405.912 768.199 417.016 782.758 424.525C806.153 434.759 843.96 422.827 874.169 408.972C871.129 413.315 868.422 417.82 866.064 422.461C839.904 481.023 956.274 490.855 965.27 484.989C972.005 475.455 979.866 463.225 988.639 449.577C1015.62 407.595 1051.23 352.194 1089.23 320.563C1010.11 504.602 1035.04 662.517 1205.64 736.436C1300.73 778.032 1363.68 775.698 1395.59 765.387C1408.65 761.671 1420.31 755.071 1429.4 746.259C1438.49 737.447 1444.69 726.738 1447.35 715.22ZM665.432 301.102C583.767 265.381 799.035 131.559 868.898 161.884C868.362 162.71 867.72 163.71 866.977 164.869C847.12 195.829 754.699 339.923 665.432 301.102ZM1381.8 665.31C1351.73 664.203 1322.25 657.822 1295.2 646.566C1178.43 595.96 1200.16 497.424 1252.17 444.102C1316.86 377.422 1443.31 353.628 1516.82 379.248C1575.91 399.728 1596.53 442.349 1594.48 459.885C1586.64 487.18 1567.49 511.13 1540.56 527.308C1445.54 581.651 1329.85 513.779 1329.85 513.779C1329.85 513.779 1278.49 567.386 1343.48 595.812C1363.19 604.276 1384.86 608.9 1406.92 609.348C1428.98 609.796 1450.88 606.058 1471.03 598.403C1480.68 601.923 1493.94 641.323 1469.96 653.003C1441.88 662.228 1411.86 666.418 1381.8 665.31ZM1513.98 463.645C1527.23 447.971 1537.97 432.369 1526.27 427.252C1477.5 408.719 1378.79 461.916 1353.27 493.922C1422.99 527.217 1495.77 484.848 1513.98 463.645Z" fill="url(#paint0_linear_0_27)"/>
<path d="M31.984 95H28.552V88.28H20.992V95H17.584V78.992H20.992V85.28H28.552V78.992H31.984V95ZM40.4427 95.288C36.6267 95.288 34.3227 92.504 34.3227 89.192C34.3227 85.904 36.6267 83.12 40.4427 83.12C44.2827 83.12 46.5867 85.904 46.5867 89.192C46.5867 92.504 44.2827 95.288 40.4427 95.288ZM40.4427 92.576C42.3387 92.576 43.4187 91.016 43.4187 89.192C43.4187 87.392 42.3387 85.832 40.4427 85.832C38.5467 85.832 37.4907 87.392 37.4907 89.192C37.4907 91.016 38.5467 92.576 40.4427 92.576ZM62.2639 95H59.0239L56.5759 87.104L54.1279 95H50.8639L47.3359 83.408H50.5039L52.6639 91.208L55.2079 83.408H57.9199L60.4639 91.208L62.6239 83.408H65.7919L62.2639 95ZM78.8339 95.288C75.2579 95.288 72.6899 92.768 72.6899 89.192C72.6899 85.64 75.2579 83.12 78.8339 83.12C81.2099 83.12 82.6499 84.152 83.4179 85.208L81.4259 87.08C80.8739 86.264 80.0339 85.832 78.9779 85.832C77.1299 85.832 75.8339 87.176 75.8339 89.192C75.8339 91.208 77.1299 92.576 78.9779 92.576C80.0339 92.576 80.8739 92.096 81.4259 91.328L83.4179 93.176C82.6499 94.256 81.2099 95.288 78.8339 95.288ZM95.4184 95H92.3704V93.8C91.5784 94.736 90.2104 95.288 88.6984 95.288C86.8504 95.288 84.6664 94.04 84.6664 91.448C84.6664 88.736 86.8504 87.704 88.6984 87.704C90.2344 87.704 91.6024 88.208 92.3704 89.12V87.56C92.3704 86.384 91.3624 85.616 89.8264 85.616C88.5784 85.616 87.4264 86.072 86.4424 86.984L85.2904 84.944C86.7064 83.696 88.5304 83.12 90.3544 83.12C92.9944 83.12 95.4184 84.176 95.4184 87.512V95ZM89.9224 93.224C90.9064 93.224 91.8664 92.888 92.3704 92.216V90.776C91.8664 90.104 90.9064 89.768 89.9224 89.768C88.7224 89.768 87.7384 90.392 87.7384 91.52C87.7384 92.6 88.7224 93.224 89.9224 93.224ZM109.314 95H106.266V87.992C106.266 86.384 105.426 85.832 104.13 85.832C102.93 85.832 101.994 86.504 101.49 87.2V95H98.4417V83.408H101.49V84.92C102.234 84.032 103.65 83.12 105.546 83.12C108.09 83.12 109.314 84.56 109.314 86.816V95ZM131.897 95H128.657L126.209 87.104L123.761 95H120.497L116.969 83.408H120.137L122.297 91.208L124.841 83.408H127.553L130.097 91.208L132.257 83.408H135.425L131.897 95ZM142.374 95.288C138.846 95.288 136.182 92.912 136.182 89.192C136.182 85.832 138.654 83.12 142.182 83.12C145.638 83.12 147.99 85.712 147.99 89.504V90.176H139.374C139.566 91.64 140.742 92.864 142.71 92.864C143.694 92.864 145.062 92.432 145.806 91.712L147.15 93.68C145.998 94.736 144.174 95.288 142.374 95.288ZM145.038 88.112C144.966 87.008 144.198 85.544 142.182 85.544C140.286 85.544 139.47 86.96 139.326 88.112H145.038ZM167.228 95H164.18V87.944C164.18 86.336 163.34 85.832 162.02 85.832C160.844 85.832 159.908 86.504 159.38 87.2V95H156.332V78.992H159.38V84.92C160.124 84.032 161.564 83.12 163.46 83.12C166.004 83.12 167.228 84.512 167.228 86.768V95ZM175.702 95.288C172.174 95.288 169.51 92.912 169.51 89.192C169.51 85.832 171.982 83.12 175.51 83.12C178.966 83.12 181.318 85.712 181.318 89.504V90.176H172.702C172.894 91.64 174.07 92.864 176.038 92.864C177.022 92.864 178.39 92.432 179.134 91.712L180.478 93.68C179.326 94.736 177.502 95.288 175.702 95.288ZM178.366 88.112C178.294 87.008 177.526 85.544 175.51 85.544C173.614 85.544 172.798 86.96 172.654 88.112H178.366ZM186.568 95H183.52V78.992H186.568V95ZM196.214 95.288C194.846 95.288 193.574 94.712 192.638 93.512V99.416H189.59V83.408H192.638V84.872C193.526 83.744 194.798 83.12 196.214 83.12C199.19 83.12 201.35 85.328 201.35 89.192C201.35 93.056 199.19 95.288 196.214 95.288ZM195.254 92.576C197.006 92.576 198.182 91.208 198.182 89.192C198.182 87.2 197.006 85.832 195.254 85.832C194.27 85.832 193.142 86.408 192.638 87.152V91.256C193.142 91.976 194.27 92.576 195.254 92.576ZM205.077 90.104C204.573 89.552 204.285 88.832 204.285 87.992C204.285 85.136 207.789 84.8 207.789 83.144C207.789 82.4 207.237 81.776 205.917 81.776C204.717 81.776 203.709 82.376 202.965 83.264L201.021 81.08C202.293 79.592 204.213 78.752 206.277 78.752C209.373 78.752 211.269 80.312 211.269 82.544C211.269 86.048 207.261 86.312 207.261 88.328C207.261 88.712 207.453 89.12 207.693 89.336L205.077 90.104ZM206.229 95.264C205.173 95.264 204.285 94.376 204.285 93.32C204.285 92.264 205.173 91.376 206.229 91.376C207.285 91.376 208.173 92.264 208.173 93.32C208.173 94.376 207.285 95.264 206.229 95.264Z" fill="white"/>
</g>
</g>
</g>
<path d="M317.5 12H286.5C279.044 12 273 18.0442 273 25.5C273 32.9558 279.044 39 286.5 39H317.5C324.956 39 331 32.9558 331 25.5C331 18.0442 324.956 12 317.5 12Z" fill="#20242D"/>
<mask id="mask7_0_27" style="mask-type:luminance" maskUnits="userSpaceOnUse" x="281" y="18" width="14" height="15">
<path d="M295 18.5H281V32.5H295V18.5Z" fill="white"/>
</mask>
<g mask="url(#mask7_0_27)">
<path d="M288 18.5C284.136 18.5 281 21.636 281 25.5C281 29.364 284.136 32.5 288 32.5C291.864 32.5 295 29.364 295 25.5C295 21.636 291.864 18.5 288 18.5ZM293.558 24.8H291.136C291.059 23.029 290.681 21.447 290.114 20.313C291.955 21.062 293.306 22.763 293.558 24.8ZM282.442 26.2H284.864C284.941 27.971 285.319 29.553 285.886 30.687C284.045 29.938 282.701 28.237 282.442 26.2ZM284.864 24.8H282.442C282.694 22.763 284.045 21.062 285.886 20.313C285.319 21.447 284.948 23.029 284.864 24.8ZM288.952 29.875C288.714 30.4 288.469 30.743 288.266 30.932C288.168 31.023 288.098 31.065 288.056 31.086C288.021 31.1 288.007 31.1 288 31.1C287.993 31.1 287.979 31.1 287.944 31.086C287.902 31.065 287.832 31.023 287.734 30.932C287.531 30.743 287.286 30.4 287.048 29.875C286.642 28.965 286.341 27.684 286.264 26.2H289.729C289.659 27.684 289.358 28.965 288.952 29.875ZM286.264 24.8C286.334 23.316 286.635 22.035 287.048 21.125C287.286 20.6 287.531 20.257 287.734 20.068C287.832 19.977 287.902 19.935 287.944 19.914C287.979 19.9 287.993 19.9 288 19.9C288.007 19.9 288.021 19.9 288.056 19.914C288.098 19.935 288.168 19.977 288.266 20.068C288.469 20.257 288.714 20.6 288.952 21.125C289.358 22.035 289.659 23.316 289.736 24.8H286.264ZM290.114 30.687C290.674 29.553 291.052 27.971 291.136 26.2H293.558C293.306 28.237 291.955 29.938 290.114 30.687Z" fill="white"/>
</g>
<mask id="mask8_0_27" style="mask-type:luminance" maskUnits="userSpaceOnUse" x="301" y="17" width="22" height="17">
<path d="M323 17H301V34H323V17Z" fill="white"/>
</mask>
<g mask="url(#mask8_0_27)">
<path d="M308.851 30H302.243V20.662H308.851V22.412H304.231V24.386H308.753V26.136H304.231V28.25H308.851V30ZM318.763 30H316.845L312.393 23.91V30H310.405V20.662H312.449L316.775 26.528V20.662H318.763V30Z" fill="white"/>
</g>
</g>
</g>
<g clip-path="url(#clip1_0_27)">
<path d="M20.149 12H54.0241L45.6269 55.8967L17 51.8461L20.149 12Z" fill="#20242D"/>
<path d="M27.2484 36.1844C28.737 36.5989 30.3877 36.8061 32.2008 36.8061C33.0786 36.8061 33.7371 36.7779 34.1761 36.7214C34.615 36.6649 34.9108 36.5707 35.0634 36.4388C35.2161 36.307 35.2925 36.1279 35.2925 35.9018C35.2925 35.5816 35.1685 35.3838 34.9204 35.3084C34.6914 35.2331 34.2237 35.1294 33.5176 34.9975L31.2561 34.5737C29.8057 34.2911 28.756 33.8483 28.1072 33.2454C27.4774 32.6237 27.1625 31.7006 27.1625 30.476C27.1625 28.8181 27.6587 27.6877 28.6511 27.0848C29.6625 26.4819 31.2656 26.1805 33.4603 26.1805C34.7772 26.1805 35.9319 26.2559 36.9243 26.4066C37.9357 26.5385 38.7755 26.708 39.4434 26.9153L39.3862 30.3347L39.3002 30.4195C37.7544 29.9296 36.0654 29.6847 34.2333 29.6847C33.3363 29.6847 32.7066 29.7507 32.344 29.8826C32.0004 29.9956 31.8287 30.2311 31.8287 30.589C31.8287 30.7774 31.8763 30.9281 31.9717 31.0412C32.0862 31.1542 32.3343 31.2673 32.716 31.3803C33.0977 31.4745 33.699 31.597 34.5196 31.7477L36.6093 32.1434C37.7735 32.3883 38.6323 32.7933 39.1857 33.3585C39.7392 33.9237 40.016 34.8186 40.016 36.0432C40.016 37.1171 39.8155 37.9742 39.4147 38.6148C39.014 39.2365 38.3365 39.6793 37.3823 39.943C36.4471 40.2068 35.1494 40.3387 33.489 40.3387C32.2294 40.3387 31.0653 40.2821 29.9965 40.1691C28.9469 40.0372 28.0022 39.8865 27.1625 39.717V36.241L27.2484 36.1844Z" fill="white"/>
<path d="M54.7242 39.6321C54.1898 39.8205 53.4455 39.9901 52.4913 40.1408C51.5561 40.2727 50.4396 40.3387 49.1419 40.3387C47.5006 40.3387 46.0979 40.1314 44.9338 39.717C43.7887 39.2836 42.9203 38.5582 42.3287 37.5409C41.737 36.5047 41.4413 35.0729 41.4413 33.2454C41.4413 30.7586 42.0138 28.9594 43.1589 27.8479C44.3231 26.7363 46.117 26.1805 48.5407 26.1805C50.2774 26.1805 51.6419 26.4254 52.6343 26.9153C53.6458 27.4051 54.3615 28.1022 54.7814 29.0065C55.2204 29.8919 55.4398 30.947 55.4398 32.1716C55.4398 32.5295 55.4207 32.9158 55.3825 33.3303C55.3634 33.7447 55.3158 34.1497 55.2394 34.5454L55.1249 34.6584H45.7066C45.8402 35.4874 46.2315 36.0337 46.8804 36.2975C47.5484 36.5612 48.6266 36.6931 50.1152 36.6931C51.1076 36.6931 51.9282 36.6743 52.5771 36.6366C53.245 36.5801 53.9226 36.5047 54.6096 36.4105L54.7242 36.4954V39.6321ZM51.4607 31.6912C51.4607 31.2391 51.3844 30.8528 51.2317 30.5325C51.0981 30.1934 50.8213 29.9391 50.4014 29.7696C49.9816 29.5812 49.3614 29.487 48.5407 29.487C47.3384 29.487 46.5463 29.6942 46.1647 30.1087C45.8021 30.5043 45.6208 31.0318 45.6208 31.6912H51.4607Z" fill="white"/>
<path d="M62.4552 40.0843H57.8749V21.0656H62.4552V40.0843Z" fill="white"/>
<path d="M78.1791 39.6321C77.6447 39.8205 76.9004 39.9901 75.9462 40.1408C75.0111 40.2727 73.8947 40.3387 72.5969 40.3387C70.9557 40.3387 69.5529 40.1314 68.3887 39.717C67.2436 39.2836 66.3754 38.5582 65.7837 37.5409C65.1921 36.5047 64.8962 35.0729 64.8962 33.2454C64.8962 30.7586 65.4688 28.9594 66.6139 27.8479C67.778 26.7363 69.572 26.1805 71.9957 26.1805C73.7324 26.1805 75.097 26.4254 76.0894 26.9153C77.1009 27.4051 77.8165 28.1022 78.2364 29.0065C78.6753 29.8919 78.8948 30.947 78.8948 32.1716C78.8948 32.5295 78.8758 32.9158 78.8376 33.3303C78.8185 33.7447 78.7707 34.1497 78.6944 34.5454L78.5799 34.6584H69.1617C69.2953 35.4874 69.6865 36.0337 70.3353 36.2975C71.0033 36.5612 72.0816 36.6931 73.5702 36.6931C74.5626 36.6931 75.3833 36.6743 76.0322 36.6366C76.7001 36.5801 77.3776 36.5047 78.0646 36.4105L78.1791 36.4954V39.6321ZM74.9156 31.6912C74.9156 31.2391 74.8393 30.8528 74.6866 30.5325C74.553 30.1934 74.2764 29.9391 73.8565 29.7696C73.4366 29.5812 72.8163 29.487 71.9957 29.487C70.7934 29.487 70.0014 29.6942 69.6197 30.1087C69.2571 30.5043 69.0758 31.0318 69.0758 31.6912H74.9156Z" fill="white"/>
<path d="M92.1794 36.0997V39.7735C91.7023 39.9619 90.9962 40.1031 90.061 40.1973C89.1259 40.2915 88.1335 40.3387 87.0838 40.3387C85.5761 40.3387 84.3166 40.1314 83.3051 39.717C82.3127 39.3025 81.5684 38.5866 81.0722 37.5692C80.5951 36.5519 80.347 35.1389 80.3279 33.3303C80.3279 31.4651 80.5856 30.0145 81.1009 28.9783C81.6352 27.9421 82.4081 27.2167 83.4196 26.8022C84.4311 26.3877 85.643 26.1805 87.0553 26.1805C87.895 26.1805 88.7824 26.237 89.7175 26.3501C90.6526 26.4631 91.416 26.6138 92.0076 26.8022L92.0363 30.589L91.9504 30.6455C91.3779 30.5325 90.7671 30.4478 90.1183 30.3913C89.4694 30.3347 88.8301 30.3064 88.2003 30.3064C86.9217 30.3064 86.0342 30.542 85.538 31.013C85.0418 31.484 84.7937 32.2752 84.7937 33.3868C84.7937 34.2346 84.8987 34.8656 85.1086 35.2801C85.3186 35.6946 85.6716 35.9678 86.1678 36.0997C86.664 36.2316 87.3415 36.2975 88.2003 36.2975C88.8683 36.2975 89.5076 36.2693 90.1183 36.2128C90.729 36.1562 91.3779 36.0902 92.0649 36.0149L92.1794 36.0997Z" fill="white"/>
<path d="M95.035 35.9584V30.0238H93.3174V26.3501H95.4645L96.3233 22.9872H99.6153V26.3501H102.736V30.0238H99.6153V34.9693C99.6153 35.4969 99.6821 35.8642 99.8157 36.0714C99.9493 36.2598 100.255 36.354 100.732 36.354C101.037 36.354 101.362 36.3446 101.705 36.3258C102.049 36.2881 102.392 36.2504 102.736 36.2128L102.822 36.2693V39.943C101.905 40.2068 100.694 40.3387 99.1859 40.3387C97.6783 40.3387 96.6095 39.9996 95.9797 39.3213C95.35 38.6431 95.035 37.5221 95.035 35.9584Z" fill="white"/>
<path d="M104.398 33.3019C104.398 30.7774 104.942 28.9594 106.03 27.8479C107.118 26.7363 108.959 26.1805 111.555 26.1805C113.291 26.1805 114.685 26.4254 115.734 26.9153C116.784 27.4051 117.538 28.1775 117.996 29.2326C118.473 30.2687 118.712 31.6252 118.712 33.3019C118.712 34.9598 118.473 36.307 117.996 37.3431C117.538 38.3793 116.784 39.1423 115.734 39.6321C114.685 40.1031 113.291 40.3387 111.555 40.3387C108.959 40.3387 107.118 39.7923 106.03 38.6996C104.942 37.5881 104.398 35.7888 104.398 33.3019ZM111.555 36.467C112.662 36.467 113.406 36.2316 113.788 35.7606C114.188 35.2708 114.389 34.423 114.389 33.2172C114.389 32.068 114.188 31.2484 113.788 30.7586C113.406 30.2499 112.662 29.9956 111.555 29.9956C110.486 29.9956 109.742 30.2499 109.322 30.7586C108.921 31.2484 108.721 32.068 108.721 33.2172C108.721 34.423 108.921 35.2708 109.322 35.7606C109.742 36.2316 110.486 36.467 111.555 36.467Z" fill="white"/>
<path d="M125.719 40.0843H121.139V26.3219H124.861L125.233 29.1478H125.319C125.49 28.0928 125.901 27.3392 126.55 26.8871C127.199 26.4161 128.162 26.1805 129.441 26.1805C129.956 26.1805 130.424 26.2088 130.844 26.2654C131.264 26.303 131.617 26.3407 131.903 26.3784V30.7869L131.846 30.8434C131.54 30.7681 131.187 30.7021 130.786 30.6455C130.405 30.589 129.966 30.5608 129.47 30.5608C128.764 30.5608 128.124 30.6739 127.552 30.8999C126.998 31.126 126.559 31.5687 126.235 32.2281C125.929 32.8686 125.777 33.8295 125.777 35.1106L125.719 40.0843Z" fill="white"/>
</g>
<path d="M81.5213 381H79.6719V372.359H77.9815C77.5241 372.359 77.148 372.427 76.853 372.563C76.5613 372.696 76.3442 372.891 76.2017 373.15C76.0625 373.405 75.9929 373.713 75.9929 374.075C75.9929 374.436 76.0625 374.741 76.2017 374.989C76.3409 375.235 76.5563 375.422 76.848 375.551C77.143 375.677 77.5175 375.74 77.9716 375.74H80.4474V377.271H77.723C76.9408 377.271 76.2813 377.142 75.7443 376.884C75.2074 376.622 74.7997 376.252 74.5213 375.775C74.2462 375.294 74.1087 374.728 74.1087 374.075C74.1087 373.425 74.2446 372.857 74.5163 372.369C74.7914 371.879 75.1958 371.498 75.7294 371.226C76.263 370.954 76.9193 370.818 77.6982 370.818H81.5213V381ZM76.2564 376.386H78.2699L75.794 381H73.7358L76.2564 376.386ZM88.3846 373.364L89.9258 376.183L91.4918 373.364H93.396L91.0941 377.182L93.4357 381H91.5415L89.9258 378.251L88.3249 381H86.4158L88.7425 377.182L86.4755 373.364H88.3846ZM97.8319 381.149C97.0861 381.149 96.4398 380.985 95.8929 380.657C95.3461 380.329 94.9218 379.87 94.6202 379.28C94.3219 378.69 94.1728 378 94.1728 377.212C94.1728 376.423 94.3219 375.732 94.6202 375.138C94.9218 374.545 95.3461 374.085 95.8929 373.756C96.4398 373.428 97.0861 373.264 97.8319 373.264C98.5776 373.264 99.2239 373.428 99.7708 373.756C100.318 374.085 100.74 374.545 101.039 375.138C101.34 375.732 101.491 376.423 101.491 377.212C101.491 378 101.34 378.69 101.039 379.28C100.74 379.87 100.318 380.329 99.7708 380.657C99.2239 380.985 98.5776 381.149 97.8319 381.149ZM97.8418 379.707C98.2462 379.707 98.5842 379.596 98.856 379.374C99.1278 379.149 99.33 378.847 99.4625 378.469C99.5984 378.092 99.6664 377.671 99.6664 377.207C99.6664 376.739 99.5984 376.317 99.4625 375.939C99.33 375.558 99.1278 375.254 98.856 375.029C98.5842 374.804 98.2462 374.691 97.8418 374.691C97.4275 374.691 97.0828 374.804 96.8077 375.029C96.5359 375.254 96.3321 375.558 96.1962 375.939C96.0636 376.317 95.9973 376.739 95.9973 377.207C95.9973 377.671 96.0636 378.092 96.1962 378.469C96.3321 378.847 96.5359 379.149 96.8077 379.374C97.0828 379.596 97.4275 379.707 97.8418 379.707ZM102.177 374.84V373.364H108.859V374.84H106.388V381H104.648V374.84H102.177ZM113.358 381.149C112.593 381.149 111.931 380.99 111.374 380.672C110.821 380.35 110.395 379.896 110.097 379.31C109.798 378.72 109.649 378.025 109.649 377.227C109.649 376.441 109.798 375.752 110.097 375.158C110.398 374.562 110.819 374.098 111.36 373.766C111.9 373.432 112.535 373.264 113.264 373.264C113.734 373.264 114.178 373.34 114.596 373.493C115.017 373.642 115.388 373.874 115.71 374.189C116.035 374.504 116.29 374.905 116.475 375.392C116.661 375.876 116.754 376.453 116.754 377.122V377.674H110.494V376.461H115.029C115.025 376.116 114.951 375.81 114.805 375.541C114.659 375.269 114.455 375.056 114.193 374.9C113.935 374.744 113.633 374.666 113.289 374.666C112.921 374.666 112.597 374.756 112.319 374.935C112.041 375.11 111.824 375.342 111.668 375.631C111.515 375.916 111.437 376.229 111.434 376.57V377.629C111.434 378.073 111.515 378.455 111.678 378.773C111.84 379.088 112.067 379.33 112.359 379.499C112.651 379.664 112.992 379.747 113.383 379.747C113.645 379.747 113.882 379.711 114.094 379.638C114.306 379.562 114.49 379.451 114.646 379.305C114.802 379.159 114.919 378.978 114.999 378.763L116.679 378.952C116.573 379.396 116.371 379.784 116.073 380.115C115.778 380.443 115.4 380.698 114.939 380.881C114.478 381.06 113.951 381.149 113.358 381.149ZM117.749 381L117.739 379.518H118.003C118.202 379.518 118.369 379.474 118.505 379.384C118.641 379.295 118.754 379.146 118.843 378.937C118.933 378.725 119.002 378.44 119.052 378.082C119.102 377.724 119.136 377.278 119.156 376.744L119.29 373.364H124.859V381H123.119V374.84H120.926L120.807 377.301C120.777 377.937 120.706 378.489 120.593 378.957C120.484 379.421 120.328 379.804 120.126 380.105C119.927 380.407 119.677 380.632 119.375 380.781C119.073 380.927 118.717 381 118.306 381H117.749ZM136.263 370.54L136.89 371.703C136.668 371.895 136.419 372.035 136.144 372.121C135.869 372.207 135.546 372.263 135.175 372.29C134.807 372.313 134.369 372.33 133.862 372.339C133.292 372.353 132.826 372.46 132.465 372.663C132.104 372.865 131.827 373.171 131.635 373.582C131.443 373.99 131.317 374.51 131.257 375.143H131.342C131.58 374.676 131.915 374.32 132.346 374.075C132.777 373.829 133.282 373.707 133.862 373.707C134.495 373.707 135.054 373.849 135.538 374.134C136.025 374.416 136.404 374.825 136.676 375.362C136.951 375.899 137.089 376.549 137.089 377.311C137.089 378.097 136.941 378.778 136.646 379.354C136.351 379.928 135.932 380.37 135.388 380.682C134.848 380.993 134.207 381.149 133.464 381.149C132.725 381.149 132.082 380.988 131.536 380.667C130.992 380.342 130.571 379.863 130.273 379.23C129.978 378.594 129.83 377.81 129.83 376.879V376.192C129.83 374.396 130.165 373.055 130.835 372.17C131.504 371.286 132.497 370.835 133.812 370.818C134.204 370.812 134.553 370.81 134.862 370.813C135.173 370.817 135.445 370.802 135.677 370.768C135.909 370.735 136.104 370.659 136.263 370.54ZM133.474 379.707C133.842 379.707 134.161 379.613 134.429 379.424C134.697 379.232 134.903 378.96 135.045 378.609C135.191 378.257 135.264 377.841 135.264 377.361C135.264 376.887 135.191 376.484 135.045 376.153C134.9 375.818 134.692 375.563 134.424 375.387C134.156 375.211 133.836 375.124 133.464 375.124C133.186 375.124 132.936 375.173 132.714 375.273C132.492 375.372 132.303 375.518 132.147 375.71C131.991 375.902 131.872 376.136 131.789 376.411C131.706 376.686 131.661 377.003 131.655 377.361C131.655 378.08 131.817 378.652 132.142 379.076C132.467 379.497 132.911 379.707 133.474 379.707ZM139.838 375.849H142.09C143.065 375.849 143.819 376.086 144.352 376.56C144.886 377.034 145.154 377.656 145.158 378.425C145.154 378.925 145.032 379.369 144.79 379.757C144.551 380.145 144.203 380.45 143.746 380.672C143.292 380.891 142.74 381 142.09 381H138.62V373.364H140.355V379.523H142.09C142.481 379.523 142.803 379.424 143.055 379.225C143.307 379.023 143.433 378.764 143.433 378.45C143.433 378.118 143.307 377.848 143.055 377.639C142.803 377.43 142.481 377.326 142.09 377.326H139.838V375.849ZM146.107 381V373.364H147.907V381H146.107ZM154.354 383.864C154.109 383.864 153.882 383.844 153.673 383.804C153.467 383.768 153.303 383.724 153.181 383.675L153.598 382.273C153.86 382.349 154.094 382.385 154.299 382.382C154.505 382.379 154.685 382.314 154.841 382.188C155 382.066 155.134 381.86 155.244 381.572L155.398 381.159L152.629 373.364H154.538L156.298 379.131H156.377L158.142 373.364H160.056L156.999 381.925C156.856 382.329 156.667 382.675 156.432 382.964C156.197 383.255 155.908 383.478 155.567 383.63C155.229 383.786 154.825 383.864 154.354 383.864ZM160.879 378.907H162.664C162.68 379.192 162.808 379.412 163.047 379.568C163.285 379.724 163.595 379.802 163.976 379.802C164.364 379.802 164.691 379.717 164.956 379.548C165.224 379.376 165.358 379.116 165.358 378.768C165.358 378.562 165.307 378.382 165.204 378.226C165.102 378.067 164.957 377.944 164.772 377.858C164.586 377.772 164.367 377.729 164.116 377.729H162.947V376.451H164.116C164.49 376.451 164.773 376.365 164.966 376.192C165.161 376.02 165.259 375.803 165.259 375.541C165.259 375.259 165.156 375.031 164.951 374.855C164.749 374.679 164.469 374.592 164.111 374.592C163.753 374.592 163.454 374.673 163.216 374.835C162.98 374.998 162.858 375.206 162.848 375.462H161.073C161.08 375.018 161.212 374.631 161.471 374.303C161.733 373.975 162.084 373.72 162.525 373.538C162.969 373.355 163.469 373.264 164.026 373.264C164.623 373.264 165.138 373.354 165.572 373.533C166.006 373.712 166.341 373.962 166.577 374.283C166.812 374.602 166.93 374.976 166.93 375.407C166.93 375.821 166.8 376.164 166.542 376.436C166.283 376.705 165.935 376.897 165.498 377.013V377.092C165.799 377.109 166.071 377.195 166.313 377.351C166.555 377.503 166.747 377.71 166.89 377.972C167.032 378.234 167.104 378.537 167.104 378.882C167.104 379.349 166.969 379.754 166.701 380.095C166.432 380.433 166.063 380.693 165.592 380.876C165.125 381.058 164.59 381.149 163.986 381.149C163.4 381.149 162.874 381.061 162.41 380.886C161.95 380.707 161.583 380.45 161.312 380.115C161.04 379.78 160.896 379.378 160.879 378.907ZM173.765 376.436V377.913H169.699V376.436H173.765ZM170.256 373.364V381H168.52V373.364H170.256ZM174.944 373.364V381H173.214V373.364H174.944ZM178.962 381.154C178.478 381.154 178.042 381.068 177.654 380.896C177.27 380.72 176.965 380.461 176.74 380.12C176.518 379.779 176.407 379.358 176.407 378.857C176.407 378.426 176.486 378.07 176.645 377.788C176.804 377.507 177.021 377.281 177.297 377.112C177.572 376.943 177.882 376.816 178.226 376.729C178.574 376.64 178.934 376.575 179.305 376.536C179.752 376.489 180.115 376.448 180.394 376.411C180.672 376.371 180.874 376.312 181 376.232C181.13 376.149 181.194 376.022 181.194 375.849V375.82C181.194 375.445 181.083 375.155 180.861 374.95C180.639 374.744 180.319 374.641 179.902 374.641C179.461 374.641 179.111 374.737 178.853 374.93C178.597 375.122 178.425 375.349 178.336 375.611L176.655 375.372C176.788 374.908 177.007 374.52 177.311 374.209C177.616 373.894 177.989 373.659 178.43 373.503C178.871 373.344 179.358 373.264 179.892 373.264C180.26 373.264 180.626 373.307 180.99 373.393C181.355 373.48 181.688 373.622 181.99 373.821C182.291 374.017 182.533 374.283 182.716 374.621C182.901 374.96 182.994 375.382 182.994 375.889V381H181.264V379.951H181.204C181.095 380.163 180.941 380.362 180.742 380.548C180.546 380.73 180.299 380.877 180.001 380.99C179.706 381.099 179.36 381.154 178.962 381.154ZM179.429 379.832C179.791 379.832 180.104 379.76 180.369 379.618C180.634 379.472 180.838 379.28 180.98 379.041C181.126 378.803 181.199 378.542 181.199 378.261V377.361C181.143 377.407 181.047 377.45 180.911 377.49C180.778 377.53 180.629 377.565 180.463 377.594C180.298 377.624 180.134 377.651 179.971 377.674C179.809 377.697 179.668 377.717 179.549 377.734C179.28 377.77 179.04 377.83 178.828 377.913C178.616 377.996 178.448 378.112 178.326 378.261C178.203 378.406 178.142 378.595 178.142 378.827C178.142 379.159 178.263 379.409 178.505 379.578C178.747 379.747 179.055 379.832 179.429 379.832ZM183.949 374.84V373.364H190.63V374.84H188.159V381H186.419V374.84H183.949ZM193.281 375.849H195.534C196.508 375.849 197.262 376.086 197.796 376.56C198.329 377.034 198.598 377.656 198.601 378.425C198.598 378.925 198.475 379.369 198.233 379.757C197.994 380.145 197.646 380.45 197.189 380.672C196.735 380.891 196.183 381 195.534 381H192.063V373.364H193.798V379.523H195.534C195.925 379.523 196.246 379.424 196.498 379.225C196.75 379.023 196.876 378.764 196.876 378.45C196.876 378.118 196.75 377.848 196.498 377.639C196.246 377.43 195.925 377.326 195.534 377.326H193.281V375.849ZM206.947 381.149C206.201 381.149 205.555 380.985 205.008 380.657C204.461 380.329 204.037 379.87 203.735 379.28C203.437 378.69 203.288 378 203.288 377.212C203.288 376.423 203.437 375.732 203.735 375.138C204.037 374.545 204.461 374.085 205.008 373.756C205.555 373.428 206.201 373.264 206.947 373.264C207.693 373.264 208.339 373.428 208.886 373.756C209.433 374.085 209.855 374.545 210.154 375.138C210.455 375.732 210.606 376.423 210.606 377.212C210.606 378 210.455 378.69 210.154 379.28C209.855 379.87 209.433 380.329 208.886 380.657C208.339 380.985 207.693 381.149 206.947 381.149ZM206.957 379.707C207.361 379.707 207.699 379.596 207.971 379.374C208.243 379.149 208.445 378.847 208.578 378.469C208.714 378.092 208.782 377.671 208.782 377.207C208.782 376.739 208.714 376.317 208.578 375.939C208.445 375.558 208.243 375.254 207.971 375.029C207.699 374.804 207.361 374.691 206.957 374.691C206.543 374.691 206.198 374.804 205.923 375.029C205.651 375.254 205.447 375.558 205.311 375.939C205.179 376.317 205.113 376.739 205.113 377.207C205.113 377.671 205.179 378.092 205.311 378.469C205.447 378.847 205.651 379.149 205.923 379.374C206.198 379.596 206.543 379.707 206.957 379.707ZM215.189 374.84V373.364H221.871V374.84H219.4V381H217.66V374.84H215.189ZM226.37 381.149C225.604 381.149 224.943 380.99 224.386 380.672C223.833 380.35 223.407 379.896 223.108 379.31C222.81 378.72 222.661 378.025 222.661 377.227C222.661 376.441 222.81 375.752 223.108 375.158C223.41 374.562 223.831 374.098 224.371 373.766C224.912 373.432 225.546 373.264 226.275 373.264C226.746 373.264 227.19 373.34 227.608 373.493C228.029 373.642 228.4 373.874 228.721 374.189C229.046 374.504 229.301 374.905 229.487 375.392C229.673 375.876 229.765 376.453 229.765 377.122V377.674H223.506V376.461H228.04C228.037 376.116 227.962 375.81 227.817 375.541C227.671 375.269 227.467 375.056 227.205 374.9C226.947 374.744 226.645 374.666 226.3 374.666C225.932 374.666 225.609 374.756 225.331 374.935C225.052 375.11 224.835 375.342 224.68 375.631C224.527 375.916 224.449 376.229 224.446 376.57V377.629C224.446 378.073 224.527 378.455 224.689 378.773C224.852 379.088 225.079 379.33 225.371 379.499C225.662 379.664 226.004 379.747 226.395 379.747C226.657 379.747 226.894 379.711 227.106 379.638C227.318 379.562 227.502 379.451 227.657 379.305C227.813 379.159 227.931 378.978 228.01 378.763L229.691 378.952C229.585 379.396 229.383 379.784 229.084 380.115C228.789 380.443 228.412 380.698 227.951 380.881C227.49 381.06 226.963 381.149 226.37 381.149ZM231.288 381V373.364H233.088V376.446H233.744L236.041 373.364H238.208L235.38 377.112L238.238 381H236.061L233.968 378.121H233.088V381H231.288ZM240.459 383.864C240.214 383.864 239.987 383.844 239.778 383.804C239.573 383.768 239.409 383.724 239.286 383.675L239.704 382.273C239.965 382.349 240.199 382.385 240.405 382.382C240.61 382.379 240.791 382.314 240.947 382.188C241.106 382.066 241.24 381.86 241.349 381.572L241.503 381.159L238.734 373.364H240.643L242.403 379.131H242.483L244.248 373.364H246.162L243.104 381.925C242.962 382.329 242.773 382.675 242.537 382.964C242.302 383.255 242.014 383.478 241.672 383.63C241.334 383.786 240.93 383.864 240.459 383.864ZM258.877 379.523L258.727 383.188H257.032V381H256.132V379.523H258.877ZM247.407 373.364H249.142V379.518H251.544V373.364H253.279V379.518H255.68V373.364H257.415V381H247.407V373.364ZM262.035 378.564L265.092 373.364H266.942V381H265.202V375.795L262.154 381H260.3V373.364H262.035V378.564ZM270.262 373.364L271.803 376.183L273.369 373.364H275.273L272.971 377.182L275.313 381H273.419L271.803 378.251L270.202 381H268.293L270.619 377.182L268.352 373.364H270.262ZM80.0447 387.54L80.6712 388.703C80.4491 388.895 80.2005 389.035 79.9254 389.121C79.6503 389.207 79.3272 389.263 78.956 389.29C78.5881 389.313 78.1506 389.33 77.6435 389.339C77.0734 389.353 76.6077 389.46 76.2464 389.663C75.8852 389.865 75.6084 390.171 75.4162 390.582C75.224 390.99 75.098 391.51 75.0384 392.143H75.1229C75.3615 391.676 75.6963 391.32 76.1271 391.075C76.558 390.829 77.0634 390.707 77.6435 390.707C78.2765 390.707 78.835 390.849 79.3189 391.134C79.8061 391.416 80.1856 391.825 80.4574 392.362C80.7325 392.899 80.87 393.549 80.87 394.311C80.87 395.097 80.7225 395.778 80.4276 396.354C80.1326 396.928 79.7133 397.37 79.1697 397.682C78.6295 397.993 77.9882 398.149 77.2457 398.149C76.5066 398.149 75.8636 397.988 75.3168 397.667C74.7732 397.342 74.3523 396.863 74.054 396.23C73.759 395.594 73.6115 394.81 73.6115 393.879V393.192C73.6115 391.396 73.9463 390.055 74.6158 389.17C75.2853 388.286 76.2779 387.835 77.5938 387.818C77.9848 387.812 78.3345 387.81 78.6428 387.813C78.9543 387.817 79.2261 387.802 79.4581 387.768C79.6901 387.735 79.8857 387.659 80.0447 387.54ZM77.2557 396.707C77.6236 396.707 77.9418 396.613 78.2102 396.424C78.4787 396.232 78.6842 395.96 78.8267 395.609C78.9725 395.257 79.0455 394.841 79.0455 394.361C79.0455 393.887 78.9725 393.484 78.8267 393.153C78.6809 392.818 78.4737 392.563 78.2053 392.387C77.9368 392.211 77.617 392.124 77.2457 392.124C76.9673 392.124 76.7171 392.173 76.495 392.273C76.273 392.372 76.084 392.518 75.9283 392.71C75.7725 392.902 75.6532 393.136 75.5703 393.411C75.4875 393.686 75.4427 394.003 75.4361 394.361C75.4361 395.08 75.5985 395.652 75.9233 396.076C76.2481 396.497 76.6922 396.707 77.2557 396.707ZM85.7322 398.149C84.9865 398.149 84.3402 397.985 83.7933 397.657C83.2464 397.329 82.8222 396.87 82.5206 396.28C82.2223 395.69 82.0732 395 82.0732 394.212C82.0732 393.423 82.2223 392.732 82.5206 392.138C82.8222 391.545 83.2464 391.085 83.7933 390.756C84.3402 390.428 84.9865 390.264 85.7322 390.264C86.478 390.264 87.1243 390.428 87.6712 390.756C88.218 391.085 88.6406 391.545 88.9389 392.138C89.2405 392.732 89.3913 393.423 89.3913 394.212C89.3913 395 89.2405 395.69 88.9389 396.28C88.6406 396.87 88.218 397.329 87.6712 397.657C87.1243 397.985 86.478 398.149 85.7322 398.149ZM85.7422 396.707C86.1465 396.707 86.4846 396.596 86.7564 396.374C87.0282 396.149 87.2304 395.847 87.3629 395.469C87.4988 395.092 87.5668 394.671 87.5668 394.207C87.5668 393.739 87.4988 393.317 87.3629 392.939C87.2304 392.558 87.0282 392.254 86.7564 392.029C86.4846 391.804 86.1465 391.691 85.7422 391.691C85.3279 391.691 84.9832 391.804 84.7081 392.029C84.4363 392.254 84.2325 392.558 84.0966 392.939C83.964 393.317 83.8977 393.739 83.8977 394.207C83.8977 394.671 83.964 395.092 84.0966 395.469C84.2325 395.847 84.4363 396.149 84.7081 396.374C84.9832 396.596 85.3279 396.707 85.7422 396.707ZM96.1639 393.436V394.913H92.0971V393.436H96.1639ZM92.6539 390.364V398H90.9189V390.364H92.6539ZM97.3422 390.364V398H95.612V390.364H97.3422ZM100.008 400.864C99.7629 400.864 99.5359 400.844 99.3271 400.804C99.1216 400.768 98.9575 400.724 98.8349 400.675L99.2525 399.273C99.5143 399.349 99.748 399.385 99.9535 399.382C100.159 399.379 100.34 399.314 100.495 399.188C100.654 399.066 100.789 398.86 100.898 398.572L101.052 398.159L98.283 390.364H100.192L101.952 396.131H102.032L103.797 390.364H105.711L102.653 398.925C102.511 399.329 102.322 399.675 102.086 399.964C101.851 400.255 101.563 400.478 101.221 400.63C100.883 400.786 100.479 400.864 100.008 400.864ZM110.027 398.149C109.265 398.149 108.61 397.982 108.063 397.647C107.52 397.312 107.101 396.85 106.806 396.26C106.514 395.667 106.368 394.984 106.368 394.212C106.368 393.436 106.517 392.752 106.816 392.158C107.114 391.562 107.535 391.098 108.078 390.766C108.625 390.432 109.271 390.264 110.017 390.264C110.637 390.264 111.186 390.379 111.663 390.607C112.143 390.833 112.526 391.152 112.811 391.567C113.096 391.978 113.259 392.458 113.298 393.009H111.578C111.509 392.641 111.343 392.334 111.081 392.089C110.823 391.84 110.476 391.716 110.042 391.716C109.674 391.716 109.351 391.815 109.073 392.014C108.794 392.21 108.577 392.491 108.421 392.859C108.269 393.227 108.193 393.668 108.193 394.182C108.193 394.702 108.269 395.15 108.421 395.524C108.574 395.895 108.788 396.182 109.063 396.384C109.341 396.583 109.668 396.683 110.042 396.683C110.307 396.683 110.544 396.633 110.753 396.533C110.965 396.431 111.142 396.283 111.285 396.091C111.427 395.899 111.525 395.665 111.578 395.39H113.298C113.255 395.93 113.096 396.409 112.821 396.827C112.546 397.241 112.172 397.566 111.698 397.801C111.224 398.033 110.667 398.149 110.027 398.149ZM116.974 398.154C116.49 398.154 116.054 398.068 115.666 397.896C115.282 397.72 114.977 397.461 114.751 397.12C114.529 396.779 114.418 396.358 114.418 395.857C114.418 395.426 114.498 395.07 114.657 394.788C114.816 394.507 115.033 394.281 115.308 394.112C115.583 393.943 115.893 393.816 116.238 393.729C116.586 393.64 116.946 393.575 117.317 393.536C117.764 393.489 118.127 393.448 118.406 393.411C118.684 393.371 118.886 393.312 119.012 393.232C119.141 393.149 119.206 393.022 119.206 392.849V392.82C119.206 392.445 119.095 392.155 118.873 391.95C118.651 391.744 118.331 391.641 117.913 391.641C117.473 391.641 117.123 391.737 116.864 391.93C116.609 392.122 116.437 392.349 116.347 392.611L114.667 392.372C114.799 391.908 115.018 391.52 115.323 391.209C115.628 390.894 116.001 390.659 116.442 390.503C116.883 390.344 117.37 390.264 117.903 390.264C118.271 390.264 118.638 390.307 119.002 390.393C119.367 390.48 119.7 390.622 120.001 390.821C120.303 391.017 120.545 391.283 120.727 391.621C120.913 391.96 121.006 392.382 121.006 392.889V398H119.276V396.951H119.216C119.107 397.163 118.952 397.362 118.754 397.548C118.558 397.73 118.311 397.877 118.013 397.99C117.718 398.099 117.371 398.154 116.974 398.154ZM117.441 396.832C117.802 396.832 118.116 396.76 118.381 396.618C118.646 396.472 118.85 396.28 118.992 396.041C119.138 395.803 119.211 395.542 119.211 395.261V394.361C119.155 394.407 119.058 394.45 118.923 394.49C118.79 394.53 118.641 394.565 118.475 394.594C118.309 394.624 118.145 394.651 117.983 394.674C117.821 394.697 117.68 394.717 117.56 394.734C117.292 394.77 117.052 394.83 116.839 394.913C116.627 394.996 116.46 395.112 116.337 395.261C116.215 395.406 116.153 395.595 116.153 395.827C116.153 396.159 116.274 396.409 116.516 396.578C116.758 396.747 117.067 396.832 117.441 396.832ZM124.287 390.364L125.828 393.183L127.394 390.364H129.298L126.996 394.182L129.338 398H127.444L125.828 395.251L124.227 398H122.318L124.645 394.182L122.378 390.364H124.287ZM135.898 395.564L138.956 390.364H140.805V398H139.065V392.795L136.017 398H134.163V390.364H135.898V395.564ZM148.323 398.154C147.839 398.154 147.404 398.068 147.016 397.896C146.631 397.72 146.326 397.461 146.101 397.12C145.879 396.779 145.768 396.358 145.768 395.857C145.768 395.426 145.847 395.07 146.007 394.788C146.166 394.507 146.383 394.281 146.658 394.112C146.933 393.943 147.243 393.816 147.588 393.729C147.936 393.64 148.295 393.575 148.666 393.536C149.114 393.489 149.477 393.448 149.755 393.411C150.034 393.371 150.236 393.312 150.362 393.232C150.491 393.149 150.556 393.022 150.556 392.849V392.82C150.556 392.445 150.445 392.155 150.222 391.95C150 391.744 149.681 391.641 149.263 391.641C148.822 391.641 148.472 391.737 148.214 391.93C147.959 392.122 147.786 392.349 147.697 392.611L146.017 392.372C146.149 391.908 146.368 391.52 146.673 391.209C146.978 390.894 147.351 390.659 147.791 390.503C148.232 390.344 148.719 390.264 149.253 390.264C149.621 390.264 149.987 390.307 150.352 390.393C150.716 390.48 151.049 390.622 151.351 390.821C151.653 391.017 151.895 391.283 152.077 391.621C152.262 391.96 152.355 392.382 152.355 392.889V398H150.625V396.951H150.566C150.456 397.163 150.302 397.362 150.103 397.548C149.908 397.73 149.661 397.877 149.362 397.99C149.067 398.099 148.721 398.154 148.323 398.154ZM148.791 396.832C149.152 396.832 149.465 396.76 149.73 396.618C149.995 396.472 150.199 396.28 150.342 396.041C150.488 395.803 150.561 395.542 150.561 395.261V394.361C150.504 394.407 150.408 394.45 150.272 394.49C150.14 394.53 149.99 394.565 149.825 394.594C149.659 394.624 149.495 394.651 149.333 394.674C149.17 394.697 149.029 394.717 148.91 394.734C148.642 394.77 148.401 394.83 148.189 394.913C147.977 394.996 147.81 395.112 147.687 395.261C147.564 395.406 147.503 395.595 147.503 395.827C147.503 396.159 147.624 396.409 147.866 396.578C148.108 396.747 148.416 396.832 148.791 396.832ZM154.165 398V390.364H155.965V393.446H156.621L158.918 390.364H161.085L158.257 394.112L161.115 398H158.938L156.845 395.121H155.965V398H154.165ZM168.584 390.364V396.658H169.752V400.456H167.992V398H162.136V390.364H163.871V396.523H166.864V390.364H168.584ZM172.963 395.564L176.02 390.364H177.869V398H176.129V392.795L173.082 398H171.227V390.364H172.963V395.564ZM184.232 398V391.825H182.601C182.187 391.825 181.869 391.921 181.647 392.114C181.425 392.306 181.315 392.545 181.319 392.83C181.315 393.115 181.42 393.35 181.632 393.536C181.844 393.721 182.147 393.814 182.542 393.814H184.799V395.126H182.542C181.932 395.126 181.405 395.03 180.961 394.838C180.516 394.646 180.175 394.374 179.936 394.023C179.698 393.671 179.578 393.26 179.578 392.79C179.578 392.299 179.699 391.873 179.941 391.512C180.187 391.147 180.535 390.866 180.985 390.667C181.44 390.465 181.978 390.364 182.601 390.364H185.917V398H184.232ZM179.3 398L181.433 394.082H183.208L181.07 398H179.3ZM189.201 390.364L190.742 393.183L192.308 390.364H194.212L191.911 394.182L194.252 398H192.358L190.742 395.251L189.141 398H187.232L189.559 394.182L187.292 390.364H189.201Z" fill="white"/>
</g>
<defs>
<filter id="filter0_d_0_27" x="-8" y="0" width="452" height="136" filterUnits="userSpaceOnUse" color-interpolation-filters="sRGB">
<feFlood flood-opacity="0" result="BackgroundImageFix"/>
<feColorMatrix in="SourceAlpha" type="matrix" values="0 0 0 0 0 0 0 0 0 0 0 0 0 0 0 0 0 0 127 0" result="hardAlpha"/>
<feOffset dy="8"/>
<feGaussianBlur stdDeviation="4"/>
<feComposite in2="hardAlpha" operator="out"/>
<feColorMatrix type="matrix" values="0 0 0 0 0 0 0 0 0 0 0 0 0 0 0 0 0 0 0.2 0"/>
<feBlend mode="normal" in2="BackgroundImageFix" result="effect1_dropShadow_0_27"/>
<feBlend mode="normal" in="SourceGraphic" in2="effect1_dropShadow_0_27" result="shape"/>
</filter>
<linearGradient id="paint0_linear_0_27" x1="416.159" y1="2.59563" x2="414.7" y2="262.909" gradientUnits="userSpaceOnUse">
<stop stop-color="#0079FF"/>
<stop offset="1" stop-color="#0F212E"/>
</linearGradient>
<clipPath id="clip0_0_27">
<rect width="343" height="534" fill="white"/>
</clipPath>
<clipPath id="clip1_0_27">
<rect width="115" height="44" fill="white" transform="translate(17 12)"/>
</clipPath>
</defs>
</svg>
