<svg width="40" height="40" viewBox="0 0 40 40" fill="none" xmlns="http://www.w3.org/2000/svg">
<rect width="40" height="40" rx="4" fill="#E9113C"/>
<path d="M17.7605 35C23.8875 35 28.8544 28.2843 28.8544 20C28.8544 11.7157 23.8875 5 17.7605 5C11.6334 5 6.6665 11.7157 6.6665 20C6.6665 28.2843 11.6334 35 17.7605 35Z" fill="#071824"/>
<path d="M22.4326 5H17.7605V35H22.4326V5Z" fill="#071824"/>
<path d="M22.4326 35C28.5596 35 33.5265 28.2843 33.5265 20C33.5265 11.7157 28.5596 5 22.4326 5C16.3056 5 11.3386 11.7157 11.3386 20C11.3386 28.2843 16.3056 35 22.4326 35Z" fill="white"/>
<path d="M23.5675 29.8834C27.1664 29.8834 30.0839 25.4584 30.0839 20C30.0839 14.5416 27.1664 10.1166 23.5675 10.1166C19.9686 10.1166 17.0511 14.5416 17.0511 20C17.0511 25.4584 19.9686 29.8834 23.5675 29.8834Z" fill="#071824"/>
<path d="M20.0965 29.8834C23.6954 29.8834 26.6129 25.4584 26.6129 20C26.6129 14.5416 23.6954 10.1166 20.0965 10.1166C16.4976 10.1166 13.5801 14.5416 13.5801 20C13.5801 25.4584 16.4976 29.8834 20.0965 29.8834Z" fill="white"/>
</svg>
