<svg width="40" height="40" viewBox="0 0 40 40" fill="none" xmlns="http://www.w3.org/2000/svg">
<rect width="40" height="40" rx="4" fill="#E9113C"/>
<path d="M34.6766 31.435H26.8566V20.8795L34.6766 31.435Z" fill="#071824"/>
<path d="M5.8335 31.435H13.6622V20.8795L5.8335 31.435Z" fill="#071824"/>
<path d="M26.8566 12.9628H13.6622V31.435H26.8566V12.9628Z" fill="white"/>
<path d="M20.2594 23.5184C21.9597 23.5184 23.3381 22.14 23.3381 20.4397C23.3381 18.7393 21.9597 17.3609 20.2594 17.3609C18.5591 17.3609 17.1807 18.7393 17.1807 20.4397C17.1807 22.14 18.5591 23.5184 20.2594 23.5184Z" fill="#071824"/>
<path d="M26.8566 12.9628H13.6622L20.2594 4.1665L26.8566 12.9628Z" fill="#071824"/>
<path d="M17.1807 31.435H23.3381L26.8566 35.8332H13.6622L17.1807 31.435Z" fill="#071824"/>
</svg>
