<svg width="1860" height="600" viewBox="0 0 1860 600" fill="none" xmlns="http://www.w3.org/2000/svg">
<g clip-path="url(#clip0_3_16)">
<path d="M42.1013 243.937C79.4456 256.259 120.858 262.419 166.342 262.419C188.366 262.419 204.885 261.581 215.897 259.901C226.908 258.221 234.328 255.42 238.158 251.5C241.988 247.58 243.903 242.257 243.903 235.537C243.903 226.016 240.793 220.137 234.569 217.897C228.823 215.656 217.092 212.574 199.377 208.654L142.644 196.054C106.257 187.654 79.9244 174.491 63.6461 156.569C47.8466 138.087 39.9468 110.644 39.9468 74.2407C39.9468 24.9558 52.3949 -8.64748 77.2912 -26.5692C102.665 -44.491 142.882 -53.4519 197.941 -53.4519C230.976 -53.4519 259.944 -51.2117 284.84 -46.7312C310.215 -42.8109 331.281 -37.7704 348.038 -31.6098L346.602 70.0421L344.446 72.5605C305.665 57.9991 263.295 50.7183 217.333 50.7183C194.831 50.7183 179.031 52.6804 169.934 56.6007C161.316 59.9611 157.007 66.96 157.007 77.601C157.007 83.2016 158.203 87.682 160.597 91.0423C163.469 94.4027 169.693 97.763 179.269 101.123C188.844 103.924 203.927 107.566 224.514 112.046L276.939 123.807C306.144 131.088 327.689 143.127 341.573 159.929C355.458 176.731 362.401 203.335 362.401 239.739C362.401 271.662 357.373 297.143 347.319 316.185C337.264 334.666 320.269 347.829 296.331 355.67C272.871 363.511 240.314 367.431 198.661 367.431C167.062 367.431 137.856 365.751 111.045 362.391C84.7122 358.471 61.0128 353.99 39.9468 348.95V245.618L42.1013 243.937Z" fill="url(#paint0_linear_3_16)"/>
<path d="M731.385 346.428C717.979 352.028 699.307 357.069 675.368 361.549C651.908 365.469 623.899 367.431 591.342 367.431C550.167 367.431 514.979 361.271 485.774 348.95C457.047 336.068 435.262 314.504 420.42 284.261C405.578 253.458 398.158 210.894 398.158 156.569C398.158 82.6415 412.521 29.158 441.248 -3.88523C470.453 -36.9285 515.458 -53.4519 576.262 -53.4519C619.831 -53.4519 654.061 -46.1712 678.958 -31.6098C704.333 -17.0483 722.288 3.67375 732.821 30.5564C743.833 56.879 749.337 88.2421 749.337 124.646C749.337 135.287 748.859 146.77 747.901 159.091C747.422 171.412 746.227 183.451 744.312 195.213L741.439 198.573H505.163C508.514 223.215 518.331 239.457 534.609 247.298C551.366 255.138 578.415 259.059 615.759 259.059C640.656 259.059 661.243 258.499 677.521 257.379C694.278 255.699 711.276 253.458 728.512 250.658L731.385 253.18V346.428ZM649.515 110.366C649.515 96.9247 647.599 85.4418 643.769 75.9208C640.418 65.8399 633.474 58.2809 622.941 53.2404C612.408 47.6399 596.849 44.8396 576.262 44.8396C546.099 44.8396 526.229 51.0002 516.653 63.3214C507.557 75.0826 503.01 90.7641 503.01 110.366H649.515Z" fill="url(#paint1_linear_3_16)"/>
<path d="M925.332 359.869H810.426V-205.505H925.332V359.869Z" fill="url(#paint2_linear_3_16)"/>
<path d="M1319.8 346.428C1306.39 352.028 1287.72 357.069 1263.78 361.549C1240.32 365.469 1212.32 367.431 1179.76 367.431C1138.58 367.431 1103.39 361.271 1074.19 348.95C1045.46 336.068 1023.68 314.504 1008.84 284.261C993.994 253.458 986.572 210.894 986.572 156.569C986.572 82.6415 1000.93 29.158 1029.66 -3.88523C1058.87 -36.9285 1103.87 -53.4519 1164.68 -53.4519C1208.24 -53.4519 1242.48 -46.1712 1267.37 -31.6098C1292.75 -17.0483 1310.7 3.67375 1321.23 30.5564C1332.25 56.879 1337.75 88.2421 1337.75 124.646C1337.75 135.287 1337.28 146.77 1336.32 159.091C1335.84 171.412 1334.64 183.451 1332.73 195.213L1329.85 198.573H1093.58C1096.93 223.215 1106.74 239.457 1123.02 247.298C1139.78 255.138 1166.83 259.059 1204.18 259.059C1229.07 259.059 1249.66 258.499 1265.94 257.379C1282.7 255.699 1299.69 253.458 1316.93 250.658L1319.8 253.18V346.428ZM1237.93 110.366C1237.93 96.9247 1236.01 85.4418 1232.18 75.9208C1228.83 65.8399 1221.89 58.2809 1211.36 53.2404C1200.82 47.6399 1185.26 44.8396 1164.68 44.8396C1134.51 44.8396 1114.65 51.0002 1105.07 63.3214C1095.97 75.0826 1091.42 90.7641 1091.42 110.366H1237.93Z" fill="url(#paint3_linear_3_16)"/>
<path d="M1671.02 241.419V350.63C1659.05 356.23 1641.34 360.429 1617.88 363.229C1594.42 366.029 1569.52 367.431 1543.19 367.431C1505.37 367.431 1473.77 361.271 1448.39 348.95C1423.5 336.628 1404.83 315.346 1392.38 285.103C1380.41 254.86 1374.18 212.856 1373.71 159.091C1373.71 103.645 1380.17 60.5211 1393.1 29.7181C1406.5 -1.08494 1425.89 -22.6489 1451.27 -34.9701C1476.64 -47.2913 1507.05 -53.4519 1542.47 -53.4519C1563.54 -53.4519 1585.8 -51.7718 1609.26 -48.4114C1632.72 -45.0511 1651.87 -40.5706 1666.71 -34.9701L1667.43 77.601L1665.28 79.2812C1650.92 75.9208 1635.59 73.4024 1619.32 71.7222C1603.04 70.0421 1587 69.2002 1571.2 69.2002C1539.12 69.2002 1516.86 76.2027 1504.41 90.2041C1491.96 104.205 1485.74 127.728 1485.74 160.771C1485.74 185.974 1488.37 204.734 1493.64 217.055C1498.91 229.376 1507.76 237.499 1520.21 241.419C1532.66 245.339 1549.66 247.298 1571.2 247.298C1587.96 247.298 1604 246.459 1619.32 244.779C1634.64 243.099 1650.92 241.137 1668.15 238.897L1671.02 241.419Z" fill="url(#paint4_linear_3_16)"/>
<path d="M1742.66 237.217V60.7995H1699.57V-48.4113H1753.43L1774.98 -148.379H1857.57V-48.4113H1935.85V60.7995H1857.57V207.816C1857.57 223.497 1859.24 234.417 1862.6 240.577C1865.95 246.178 1873.61 248.978 1885.58 248.978C1893.24 248.978 1901.38 248.7 1909.99 248.14C1918.61 247.02 1927.23 245.9 1935.85 244.779L1938 246.46V355.67C1915.02 363.511 1884.62 367.432 1846.8 367.432C1808.97 367.432 1782.16 357.351 1766.36 337.189C1750.56 317.027 1742.66 283.701 1742.66 237.217Z" fill="url(#paint5_linear_3_16)"/>
</g>
<defs>
<linearGradient id="paint0_linear_3_16" x1="201.174" y1="-53.4519" x2="201.174" y2="367.431" gradientUnits="userSpaceOnUse">
<stop stop-color="#282F3C"/>
<stop offset="1" stop-color="#232833"/>
</linearGradient>
<linearGradient id="paint1_linear_3_16" x1="573.748" y1="-53.4519" x2="573.748" y2="367.431" gradientUnits="userSpaceOnUse">
<stop stop-color="#282F3C"/>
<stop offset="1" stop-color="#232833"/>
</linearGradient>
<linearGradient id="paint2_linear_3_16" x1="867.879" y1="-205.505" x2="867.879" y2="359.869" gradientUnits="userSpaceOnUse">
<stop stop-color="#282F3C"/>
<stop offset="1" stop-color="#232833"/>
</linearGradient>
<linearGradient id="paint3_linear_3_16" x1="1162.16" y1="-53.4519" x2="1162.16" y2="367.431" gradientUnits="userSpaceOnUse">
<stop stop-color="#282F3C"/>
<stop offset="1" stop-color="#232833"/>
</linearGradient>
<linearGradient id="paint4_linear_3_16" x1="1522.36" y1="-53.4519" x2="1522.36" y2="367.431" gradientUnits="userSpaceOnUse">
<stop stop-color="#282F3C"/>
<stop offset="1" stop-color="#232833"/>
</linearGradient>
<linearGradient id="paint5_linear_3_16" x1="1818.79" y1="-148.379" x2="1818.79" y2="367.432" gradientUnits="userSpaceOnUse">
<stop stop-color="#282F3C"/>
<stop offset="1" stop-color="#232833"/>
</linearGradient>
<clipPath id="clip0_3_16">
<rect width="1860" height="600" fill="white"/>
</clipPath>
</defs>
</svg>
